<svg aria-hidden="true" style="width:0;height:0;position:absolute;overflow:hidden" xmlns="http://www.w3.org/2000/svg"><defs><symbol id="icon-yearwarranty" viewBox="0 0 32 32"><path stroke-linejoin="round" stroke-linecap="round" stroke-width="1.111" d="M4.035 3.68h-1.78C1.3 3.68.527 4.567.527 5.661v.003c0 3.949 1.687 7.591 4.309 9.968M27.895 3.68h1.781c.954 0 1.727.887 1.727 1.981v.003c0 3.949-1.687 7.591-4.309 9.968M8.26 30.185h15.411M15.965 21.297v8.889"/></symbol><symbol id="icon-dayguarantee" viewBox="0 0 32 32"><path stroke-linejoin="round" stroke-linecap="round" stroke-width="1.111" d="M28.805 11.703c0 6.173-5.941 11.177-13.273 11.177-7.329 0-13.271-5.004-13.271-11.177S8.203.526 15.532.526c7.331 0 13.273 5.004 13.273 11.177zM12.199 25.807l-3.382 5.597-2.026-5.157-6.166 1.694 3.381-5.595M18.866 25.807l3.383 5.597 2.026-5.157 6.166 1.694-3.381-5.595"/></symbol><symbol id="icon-advancednetworkprotection" viewBox="0 0 32 32"><path stroke-linejoin="round" stroke-linecap="round" stroke-width=".81" d="m12.479 15.473 2.328 2.322 4.815-4.803"/><path stroke-linejoin="round" stroke-linecap="round" stroke-width=".81" d="M16.541 26.712c1.902-1.05 8.687-5.634 8.953-17.719a1.025 1.025 0 0 0-.679-.987c-2.573-.887-5.566-1.4-8.767-1.4h.003c-3.2 0-6.193.513-8.767 1.4-.415.143-.689.55-.679.987.267 12.086 7.052 16.67 8.953 17.719a1.005 1.005 0 0 0 .982 0z"/><path stroke-width=".81" d="M21.463.39H10.536C4.932.39.39 4.933.39 10.536v10.927c0 5.604 4.543 10.146 10.146 10.146h10.927c5.604 0 10.146-4.543 10.146-10.146V10.536C31.609 4.932 27.066.39 21.463.39z"/></symbol><symbol id="icon-alwaysgettingbetter" viewBox="0 0 32 32"><path stroke-width=".81" d="M21.463.39H10.536C4.932.39.39 4.933.39 10.536v10.927c0 5.604 4.543 10.146 10.146 10.146h10.927c5.604 0 10.146-4.543 10.146-10.146V10.536C31.609 4.932 27.066.39 21.463.39z"/><path stroke-linejoin="round" stroke-linecap="round" stroke-width=".81" d="M8.973 14.46v-1.932c0-2.178 1.631-3.943 3.643-3.943h6.671c2.012 0 3.643 1.765 3.643 3.943v1.932M8.973 16.138v3.611c0 2.177 1.631 3.943 3.643 3.943h6.671c2.012 0 3.643-1.765 3.643-3.943v-3.611"/><path stroke-linejoin="round" stroke-linecap="round" stroke-width=".81" d="m10.738 12.55-1.765 1.91-1.765-1.91M21.165 18.048l1.765-1.91 1.765 1.91"/></symbol><symbol id="icon-appliances" viewBox="0 0 32 32"><path stroke-width=".405" d="M21.463.643H10.536C4.932.643.39 5.131.39 10.667v10.795c0 5.536 4.543 10.024 10.146 10.024h10.927c5.604 0 10.146-4.488 10.146-10.024V10.667c0-5.536-4.543-10.024-10.146-10.024z"/><path stroke-linejoin="round" stroke-linecap="round" stroke-width=".638" d="M22.104 22.095c-3.36 3.32-8.809 3.32-12.169 0s-3.361-8.702 0-12.022c3.36-3.32 8.809-3.32 12.169 0s3.36 8.703 0 12.022z"/><path stroke-linejoin="round" stroke-linecap="round" stroke-width=".638" d="M18.627 20.205c-.342.342-.748.614-1.197.8a3.74 3.74 0 0 1-2.834.01 3.682 3.682 0 0 1-2.004-1.98 3.603 3.603 0 0 1 .01-2.8c.188-.443.464-.845.81-1.182a3.716 3.716 0 0 1 5.197.018c.689.68 1.077 1.602 1.08 2.564s-.378 1.886-1.062 2.571zM16.02 16.415v2.429M16.889 11.621a1.24 1.24 0 0 1-1.731-.008 1.205 1.205 0 0 1-.008-1.71 1.24 1.24 0 0 1 1.731.008 1.205 1.205 0 0 1 .008 1.71z"/></symbol><symbol id="icon-Frame" viewBox="0 0 32 32"><path d="M17.092 32H1.766A1.766 1.766 0 0 1 0 30.234V1.766C0 .79.791 0 1.766 0h28.468C31.209 0 32 .791 32 1.766v28.468c0 .975-.791 1.766-1.766 1.766H22.08V19.608h4.159l.623-4.829H22.08v-3.083c0-1.398.388-2.351 2.393-2.351l2.557-.001V5.025c-.442-.059-1.96-.19-3.727-.19-3.687 0-6.211 2.251-6.211 6.384v3.562h-4.17v4.829h4.17v12.392z"/></symbol><symbol id="icon-fastandeasysetup" viewBox="0 0 32 32"><path stroke-linejoin="round" stroke-linecap="round" stroke-width=".81" d="M23.668 19.063a3.367 3.367 0 0 0-3.363-3.369h-3.671l-.509-6.595a1.15 1.15 0 0 0-1.195-1.058 1.154 1.154 0 0 0-1.109 1.147l.01 13.244-2.341-2.05a2.48 2.48 0 0 0-3.199-.062s4.103 5.015 7.038 6.406"/><path stroke-linejoin="round" stroke-linecap="round" stroke-width=".81" d="M11.106 11.369V7.772a2.215 2.215 0 0 1 2.209-2.213h3.314a2.214 2.214 0 0 1 2.21 2.213v3.597"/><path stroke-width=".81" d="M21.463.39H10.536C4.932.39.39 4.933.39 10.536v10.927c0 5.604 4.543 10.146 10.146 10.146h10.927c5.604 0 10.146-4.543 10.146-10.146V10.536C31.609 4.932 27.066.39 21.463.39z"/></symbol><symbol id="icon-freeshipping" viewBox="0 0 32 32"><path stroke-linejoin="round" stroke-linecap="round" stroke-width="1.111" d="M1.228 22.308V.77h22.274c.625 0 1.176.589 1.352 1.446l1.797 10.794 3.326 1.734c.447.354.725 1.028.725 1.758v5.806M15.965 22.308V4.873M27.594 26.41h3.809M11.352 26.41h9.226M.526 26.41h3.808"/><path stroke-linejoin="round" stroke-linecap="round" stroke-width="1.111" d="M11.353 26.41c0 2.832-1.571 5.128-3.508 5.128s-3.509-2.295-3.509-5.128c0-2.832 1.572-5.128 3.509-5.128s3.508 2.295 3.508 5.128z"/><path d="M9.16 26.41c0 1.061-.589 1.923-1.316 1.923s-1.316-.862-1.316-1.923.589-1.923 1.316-1.923 1.316.861 1.316 1.923z"/><path stroke-linejoin="round" stroke-linecap="round" stroke-width="1.111" d="M27.595 26.41c0 2.832-1.571 5.128-3.508 5.128-1.938 0-3.509-2.295-3.509-5.128s1.572-5.128 3.509-5.128c1.937 0 3.508 2.295 3.508 5.128z"/><path d="M25.402 26.41c0 1.061-.59 1.923-1.316 1.923s-1.316-.862-1.316-1.923.589-1.923 1.316-1.923 1.316.861 1.316 1.923z"/><path stroke-linejoin="round" stroke-linecap="round" stroke-width="1.111" d="M26.651 13.008h-6.812V4.87h5.457"/></symbol><symbol id="icon-freesupport" viewBox="0 0 32 32"><path stroke-linejoin="round" stroke-linecap="round" stroke-width="1.111" d="M20.6 5.162a4.635 4.635 0 1 1-9.27 0 4.635 4.635 0 0 1 9.27 0zM.527 31.177h30.877M23.436 28.37v-5.836c0-.853-.692-1.544-1.544-1.544H10.038c-.853 0-1.543.691-1.543 1.544v5.836"/><path stroke-linejoin="round" stroke-linecap="round" stroke-width="1.111" d="M27.664 28.338a3.488 3.488 0 0 0 .607-3.566l-2.707-6.849a6.175 6.175 0 0 0-5.743-3.904h-7.712a6.174 6.174 0 0 0-5.743 3.904l-2.708 6.849a3.488 3.488 0 0 0 .608 3.566"/></symbol><symbol id="icon-instagram" viewBox="0 0 32 32"><path d="M16 0c-4.345 0-4.89.018-6.597.096C7.7.174 6.537.444 5.519.84c-1.052.409-1.944.956-2.834 1.845S1.248 4.467.84 5.519C.444 6.537.174 7.7.096 9.403.018 11.11 0 11.654 0 16s.018 4.89.096 6.597c.078 1.703.348 2.866.744 3.884.409 1.052.956 1.944 1.845 2.834s1.782 1.437 2.834 1.846c1.018.395 2.181.666 3.884.744 1.707.078 2.251.096 6.597.096s4.89-.018 6.597-.096c1.703-.078 2.866-.348 3.884-.744 1.052-.409 1.944-.956 2.834-1.846s1.437-1.782 1.846-2.834c.395-1.018.666-2.181.744-3.884.078-1.707.096-2.252.096-6.597s-.018-4.89-.096-6.597c-.078-1.703-.348-2.866-.744-3.884-.409-1.052-.956-1.944-1.846-2.834S27.533 1.248 26.481.84C25.463.444 24.3.174 22.597.096 20.89.018 20.345 0 16 0zm0 2.883c4.272 0 4.778.016 6.465.093 1.56.071 2.407.332 2.971.551.747.29 1.28.637 1.84 1.197s.907 1.093 1.197 1.84c.219.564.48 1.411.551 2.971.077 1.687.093 2.193.093 6.465s-.016 4.778-.093 6.465c-.071 1.56-.332 2.407-.551 2.971-.29.747-.637 1.28-1.197 1.84s-1.093.907-1.84 1.197c-.564.219-1.411.48-2.971.551-1.687.077-2.193.093-6.465.093s-4.778-.016-6.465-.093c-1.56-.071-2.407-.332-2.971-.551-.747-.29-1.28-.637-1.84-1.197s-.907-1.093-1.197-1.84c-.219-.564-.48-1.411-.551-2.971-.077-1.687-.093-2.193-.093-6.465s.016-4.778.093-6.465c.071-1.56.332-2.407.551-2.971.29-.747.637-1.28 1.197-1.84s1.093-.907 1.84-1.197c.564-.219 1.411-.48 2.971-.551 1.687-.077 2.193-.093 6.465-.093zM7.784 16a8.216 8.216 0 1 1 16.432 0 8.216 8.216 0 0 1-16.432 0zM16 21.333a5.333 5.333 0 1 1 0-10.667 5.333 5.333 0 0 1 0 10.667zm8.541-11.954a1.92 1.92 0 1 0-.001-3.841 1.92 1.92 0 0 0 .001 3.841z"/></symbol><symbol id="icon-lighting" viewBox="0 0 32 32"><path stroke-width=".405" d="M21.463.643H10.536C4.932.643.39 5.131.39 10.667v10.795c0 5.536 4.543 10.024 10.146 10.024h10.927c5.604 0 10.146-4.488 10.146-10.024V10.667c0-5.536-4.543-10.024-10.146-10.024z"/><path stroke-linejoin="round" stroke-linecap="round" stroke-width=".638" d="M12.594 21.257h6.492M13.522 22.876h4.638M17.232 24.495H14.45M19.06 19.637c0-.871.218-1.729.635-2.498l1.373-2.537c.008-.015.017-.029.024-.044l.009-.017h-.003a4.493 4.493 0 0 0 .437-1.929c0-2.778-2.549-5.03-5.694-5.03s-5.694 2.252-5.694 5.03c0 .684.157 1.335.437 1.929h-.002l.009.017c.007.015.016.03.025.045l1.372 2.536a5.24 5.24 0 0 1 .635 2.499"/></symbol><symbol id="icon-linkedin" viewBox="0 0 32 32"><path d="M3.767 8.311h-.045C1.464 8.311 0 6.8 0 4.885c0-1.952 1.507-3.431 3.81-3.431 2.301 0 3.716 1.475 3.761 3.426 0 1.915-1.46 3.431-3.804 3.431zM32 30.545h-7.072V20.318c0-2.677-1.106-4.504-3.539-4.504-1.861 0-2.895 1.233-3.377 2.422-.159.376-.156.881-.153 1.402l.001.213v10.694h-7.007s.09-18.116 0-19.762h7.007v3.101c.414-1.356 2.653-3.291 6.226-3.291 4.433 0 7.915 2.843 7.915 8.964v10.988zM7.044 10.783H.807v19.762h6.237V10.783z"/></symbol><symbol id="icon-mainlogo" viewBox="0 0 64 32"><path d="M24.38 25.152a8.145 8.145 0 0 1-4.597 1.401 8.326 8.326 0 0 1-5.613-2.135c-.12-.106 0-.248.124-.168a11.198 11.198 0 0 0 9.903.615c.213-.088.386.137.182.287z"/><path d="M24.899 24.564c-.16-.203-1.052-.097-1.455-.049-.12 0-.138-.088-.031-.168.714-.495 1.881-.354 2.014-.186s-.035 1.326-.701 1.888c-.102.084-.2.04-.155-.071.151-.376.484-1.211.328-1.415zm-1.424-3.732v-.486c-.001-.016.002-.033.008-.048a.122.122 0 0 1 .068-.068.113.113 0 0 1 .048-.008h2.165c.016-.001.033.002.048.008a.122.122 0 0 1 .068.068.113.113 0 0 1 .008.048v.416c0 .071-.058.159-.164.305l-1.127 1.605c.431-.025.86.067 1.242.265a.22.22 0 0 1 .115.186v.517c0 .071-.08.155-.16.111a2.507 2.507 0 0 0-2.298 0c-.075.04-.155-.04-.155-.111v-.477a.57.57 0 0 1 .08-.332l1.313-1.879h-1.136c-.016.001-.032-.002-.047-.008s-.029-.014-.04-.026-.021-.024-.027-.039a.128.128 0 0 1-.01-.047zm4.303.022c-.488 0-.519.663-.519 1.074s0 1.295.515 1.295.537-.712.537-1.145a3.03 3.03 0 0 0-.102-.884c-.02-.099-.077-.188-.159-.248s-.183-.088-.285-.079l.013-.013zm0-.694c.981 0 1.513.844 1.513 1.91s-.586 1.852-1.513 1.852-1.491-.84-1.491-1.888.532-1.875 1.491-1.875zm-5.373 3.683c-.023.015-.05.022-.078.022s-.054-.008-.078-.022a1.775 1.775 0 0 1-.382-.442 1.303 1.303 0 0 1-1.092.482.931.931 0 0 1-.733-.288.936.936 0 0 1-.256-.742 1.127 1.127 0 0 1 .706-1.079 4.563 4.563 0 0 1 1.247-.226 1.19 1.19 0 0 0-.08-.566.49.49 0 0 0-.373-.172.51.51 0 0 0-.533.389c0 .075-.067.133-.124.128l-.634-.049a.119.119 0 0 1-.098-.094.13.13 0 0 1 0-.048c.146-.774.852-1.008 1.482-1.008a1.52 1.52 0 0 1 .998.327c.319.301.288.703.288 1.136v1.03a.883.883 0 0 0 .253.61c.022.023.035.054.035.086s-.013.063-.035.086l-.51.442-.004-.004zm-.665-1.609c.024.241-.019.484-.124.703a.54.54 0 0 1-.444.301c-.257 0-.404-.195-.404-.482 0-.561.506-.663.985-.663v.141h-.013zm-8.013 1.609c-.023.015-.05.022-.078.022s-.054-.008-.078-.022a1.775 1.775 0 0 1-.382-.442 1.328 1.328 0 0 1-1.091.482.94.94 0 0 1-.976-1.012 1.119 1.119 0 0 1 .705-1.079 4.563 4.563 0 0 1 1.247-.226A1.155 1.155 0 0 0 12.99 21a.442.442 0 0 0-.368-.173.504.504 0 0 0-.533.389c0 .075-.067.133-.124.128l-.634-.066a.119.119 0 0 1-.098-.094.111.111 0 0 1 0-.048c.146-.774.852-1.008 1.482-1.008.36-.014.713.102.994.327.324.301.293.703.293 1.136v1.03a.913.913 0 0 0 .226.61.124.124 0 0 1 .037.086c0 .016-.003.032-.01.047s-.016.028-.027.039l-.51.442.009-.004zm-.666-1.609c.024.241-.019.484-.124.703a.538.538 0 0 1-.443.3c-.253 0-.399-.195-.399-.482 0-.561.506-.663.985-.663v.141h-.018zm2.6-.296c0-.393 0-.933.444-.933s.404.553.404.933v1.795c0 .031.012.061.034.083s.051.035.082.037h.661c.016.001.033-.002.048-.008s.029-.014.041-.025c.012-.011.022-.024.028-.039s.011-.031.011-.047v-1.795a2.125 2.125 0 0 1 .062-.65.447.447 0 0 1 .395-.279.346.346 0 0 1 .391.292c.016.212.016.425 0 .637v1.795a.124.124 0 0 0 .119.119h.661c.016.001.033-.002.048-.008s.029-.014.041-.025c.012-.011.022-.024.028-.039s.011-.031.011-.047v-2.14a1.754 1.754 0 0 0-.169-1.061.944.944 0 0 0-.763-.371.945.945 0 0 0-.919.628.887.887 0 0 0-.856-.628c-.197-.008-.391.049-.552.162s-.279.277-.336.465v-.442c-.001-.032-.015-.062-.038-.085s-.054-.035-.086-.035h-.572c-.016-.001-.032.002-.047.008s-.029.014-.04.026c-.012.011-.021.024-.027.039s-.01.031-.01.047v3.373c-.001.016.002.033.008.048a.122.122 0 0 0 .068.068.113.113 0 0 0 .048.008h.679c.016 0 .032-.003.047-.009s.028-.015.039-.027.02-.025.026-.04.008-.031.008-.047v-1.768l-.018-.013zm15.028 1.79c.001.016-.002.033-.008.048a.122.122 0 0 1-.068.068.113.113 0 0 1-.048.008h-.661c-.033 0-.065-.013-.088-.036s-.036-.055-.036-.088v-3.373c.001-.032.015-.062.038-.085s.054-.035.086-.035h.612a.12.12 0 0 1 .124.093v.517a.89.89 0 0 1 .887-.685.893.893 0 0 1 .772.402c.146.331.205.693.173 1.052v2.131c-.003.03-.018.058-.041.077s-.053.03-.083.029h-.639a.12.12 0 0 1-.116-.107v-2.047c0-.685-.266-.703-.417-.703a.45.45 0 0 0-.382.265 1.53 1.53 0 0 0-.107.645v1.821zM4.911 23.843l-.053-.345a1.756 1.756 0 0 1-.528.314 1.56 1.56 0 0 1-.572.115 1.047 1.047 0 0 1-.754-.27.93.93 0 0 1-.284-.716.95.95 0 0 1 .346-.774c.265-.202.594-.304.927-.287.283.004.565.043.839.115v-.442c.01-.091.001-.183-.028-.27s-.075-.167-.136-.235a.828.828 0 0 0-.555-.146 3.626 3.626 0 0 0-1.167.208v-.46c.185-.093.382-.159.586-.195.229-.048.463-.072.697-.071.331-.027.66.065.927.261a1.005 1.005 0 0 1 .302.795v2.401h-.546zm-.999-.411a1.57 1.57 0 0 0 .918-.34v-.672a2.897 2.897 0 0 0-.705-.088c-.497 0-.75.195-.75.575a.513.513 0 0 0 .142.389.553.553 0 0 0 .399.137h-.004zm4.806.411v-2.246a.77.77 0 0 0-.146-.517.555.555 0 0 0-.443-.163 1.833 1.833 0 0 0-1.029.336v2.591h-.661v-3.36h.55l.067.371c.38-.299.848-.463 1.331-.469a.982.982 0 0 1 .737.256 1.004 1.004 0 0 1 .252.752v2.467l-.657-.018zm28.054-.128c-.275.137-.58.205-.887.199a1.577 1.577 0 0 1-1.198-.442 2.203 2.203 0 0 1 0-2.596 1.587 1.587 0 0 1 1.211-.442c.29-.002.577.062.839.186v.469a2.464 2.464 0 0 0-.737-.137 1.013 1.013 0 0 0-.803.283c-.184.256-.271.57-.244.884v.084a1.33 1.33 0 0 0 .248.884.998.998 0 0 0 .785.283c.267-.005.532-.049.785-.133v.477zm2.067.225a1.521 1.521 0 0 1-1.184-.469 2.203 2.203 0 0 1 0-2.618 1.726 1.726 0 0 1 2.364 0 2.203 2.203 0 0 1 0 2.618 1.503 1.503 0 0 1-1.18.469zm0-.53c.621 0 .936-.416.936-1.251s-.315-1.242-.936-1.242-.936.411-.936 1.242.311 1.251.936 1.251zm6.722.433v-2.281a.78.78 0 0 0-.124-.486.48.48 0 0 0-.4-.159 1.866 1.866 0 0 0-.976.296.868.868 0 0 1 0 .102v2.529h-.657v-2.281a.81.81 0 0 0-.124-.486.48.48 0 0 0-.4-.159 1.815 1.815 0 0 0-.972.292v2.653h-.657v-3.36h.55l.067.34c.36-.269.793-.424 1.242-.442a.832.832 0 0 1 .843.455 2.23 2.23 0 0 1 1.331-.469.926.926 0 0 1 .705.256c.172.211.253.481.226.752v2.467l-.657-.018zm1.629 1.362v-4.722h.55l.062.345a1.657 1.657 0 0 1 1.123-.442 1.217 1.217 0 0 1 1.016.442c.266.368.397.816.373 1.269.028.475-.111.944-.395 1.326a1.275 1.275 0 0 1-1.043.491 1.474 1.474 0 0 1-1.029-.389v1.68h-.657zm1.548-4.289a1.496 1.496 0 0 0-.887.305v1.844c.253.2.565.312.887.318.612 0 .914-.411.914-1.229a1.553 1.553 0 0 0-.222-.933.784.784 0 0 0-.693-.305zm4.366 2.927-.053-.345a1.756 1.756 0 0 1-.528.314 1.583 1.583 0 0 1-.577.115c-.137.007-.275-.013-.404-.06s-.248-.118-.35-.21a.946.946 0 0 1-.279-.716.96.96 0 0 1 .342-.773c.267-.202.597-.304.932-.287.283.004.565.043.839.115v-.442a.663.663 0 0 0-.164-.504.828.828 0 0 0-.555-.146 3.65 3.65 0 0 0-1.171.208v-.46c.185-.093.382-.159.586-.195.229-.048.462-.071.697-.071.332-.026.662.066.932.261a1.001 1.001 0 0 1 .297.796v2.401h-.541zm-.998-.411a1.57 1.57 0 0 0 .918-.34v-.672a2.9 2.9 0 0 0-.706-.088c-.501 0-.75.195-.75.575a.53.53 0 0 0 .137.389.56.56 0 0 0 .399.137zm4.796.411v-2.246a.793.793 0 0 0-.142-.517.555.555 0 0 0-.443-.163 1.833 1.833 0 0 0-1.029.336v2.591h-.657v-3.36h.55l.067.371a2.187 2.187 0 0 1 1.331-.469.99.99 0 0 1 .741.256c.177.202.266.466.248.734v2.467h-.666zm4.357-3.36-1.535 3.948c-.081.25-.225.475-.417.654a.94.94 0 0 1-.617.199c-.176.001-.35-.03-.515-.093v-.469c.123.031.25.046.377.044a.572.572 0 0 0 .39-.124c.12-.124.207-.276.253-.442l.129-.336-1.358-3.391h.705l.972 2.75.936-2.75h.679v.009zM15.91 6.906H4.636v-.062c.04-.395.132-.783.275-1.154a6.194 6.194 0 0 1 2.693-3.307 5.338 5.338 0 0 1 2.804-.685 5.687 5.687 0 0 1 2.152.411 5.49 5.49 0 0 1 1.752 1.114 5.311 5.311 0 0 1 1.167 1.627 4.64 4.64 0 0 1 .444 1.99l-.013.066zM10.51 0a7.755 7.755 0 0 0-3.132.615 7.653 7.653 0 0 0-2.467 1.72 7.762 7.762 0 0 0-1.619 2.569 8.957 8.957 0 0 0-.568 3.227 9.415 9.415 0 0 0 .559 3.316c.35.961.894 1.842 1.597 2.586a7.226 7.226 0 0 0 2.494 1.693c1.029.415 2.13.62 3.239.606a9.369 9.369 0 0 0 3.833-.774 6.843 6.843 0 0 0 2.888-2.502l-1.398-1.172a5.52 5.52 0 0 1-2.218 1.994 6.674 6.674 0 0 1-3.053.752 5.782 5.782 0 0 1-2.973-.685A6.027 6.027 0 0 1 5.855 12.3a5.859 5.859 0 0 1-.945-1.959 6.894 6.894 0 0 1-.257-1.658v-.062h13.169V7.246a7.783 7.783 0 0 0-.488-2.653 7.057 7.057 0 0 0-1.398-2.334A6.962 6.962 0 0 0 13.664.614a7.598 7.598 0 0 0-3.155-.619v.004zm22.797 6.906h-11.27v-.062c.04-.395.132-.783.275-1.154a6.26 6.26 0 0 1 .927-1.729 6.134 6.134 0 0 1 1.775-1.574 5.307 5.307 0 0 1 2.804-.685 5.658 5.658 0 0 1 2.147.411 5.479 5.479 0 0 1 1.775 1.114 5.266 5.266 0 0 1 1.123 1.627c.292.623.443 1.302.444 1.989v.062zM27.911 0a7.785 7.785 0 0 0-3.137.615 7.632 7.632 0 0 0-2.458 1.715 7.694 7.694 0 0 0-1.619 2.569 8.873 8.873 0 0 0-.572 3.232 9.534 9.534 0 0 0 .555 3.316 7.562 7.562 0 0 0 1.602 2.586 7.226 7.226 0 0 0 2.494 1.693 8.354 8.354 0 0 0 3.239.606 9.369 9.369 0 0 0 3.833-.774 6.841 6.841 0 0 0 2.88-2.502l-1.398-1.172a5.48 5.48 0 0 1-2.241 1.994 6.674 6.674 0 0 1-3.053.752 5.785 5.785 0 0 1-2.973-.685 6.027 6.027 0 0 1-1.837-1.645 5.772 5.772 0 0 1-.932-1.959 6.845 6.845 0 0 1-.257-1.658v-.062h13.186V7.246a7.87 7.87 0 0 0-.47-2.653 7.057 7.057 0 0 0-1.398-2.334A7.018 7.018 0 0 0 31.088.614a7.63 7.63 0 0 0-3.155-.619l-.022.004zM52.58 14.629a6.454 6.454 0 0 1-2.609-.513 6.104 6.104 0 0 1-1.992-1.388 5.895 5.895 0 0 1-1.251-2.051 7.538 7.538 0 0 1 0-5.022 5.98 5.98 0 0 1 1.251-2.056 6.103 6.103 0 0 1 1.992-1.384 6.89 6.89 0 0 1 5.218 0 5.85 5.85 0 0 1 3.247 3.44 7.538 7.538 0 0 1 0 5.022 5.923 5.923 0 0 1-1.256 2.051 6.063 6.063 0 0 1-1.992 1.388 6.454 6.454 0 0 1-2.609.513zM52.58 0a8.874 8.874 0 0 0-3.301.615 7.472 7.472 0 0 0-2.596 1.693 7.862 7.862 0 0 0-1.686 2.586 8.678 8.678 0 0 0-.599 3.272 8.666 8.666 0 0 0 .608 3.28 7.841 7.841 0 0 0 1.686 2.586 7.574 7.574 0 0 0 2.587 1.693 8.894 8.894 0 0 0 3.305.606 8.744 8.744 0 0 0 3.292-.606 7.613 7.613 0 0 0 4.299-4.28 9.161 9.161 0 0 0 0-6.561 7.747 7.747 0 0 0-1.704-2.586 7.71 7.71 0 0 0-2.6-1.684 8.764 8.764 0 0 0-3.292-.606v-.009zM37.508 15.925h1.912V7.454a7.49 7.49 0 0 1 .306-2.171 5.004 5.004 0 0 1 .95-1.768 4.332 4.332 0 0 1 1.619-1.185 5.7 5.7 0 0 1 2.258-.442V.12c-2.218.044-3.971.725-5.182 2.016-1.992 2.118-1.864 5.195-1.864 5.226v8.564z"/></symbol><symbol id="icon-pinterest" viewBox="0 0 32 32"><path d="M16.001 0C7.165 0 0 7.163 0 16.001c0 6.55 3.94 12.179 9.579 14.654-.045-1.116-.008-2.459.277-3.675.309-1.298 2.058-8.717 2.058-8.717s-.51-1.022-.51-2.533c0-2.371 1.375-4.141 3.086-4.141 1.454 0 2.158 1.093 2.158 2.403 0 1.462-.933 3.65-1.413 5.677-.401 1.699.85 3.082 2.525 3.082 3.031 0 5.073-3.893 5.073-8.507 0-3.505-2.361-6.13-6.657-6.13-4.852 0-7.876 3.618-7.876 7.66 0 1.396.41 2.378 1.054 3.138.297.352.337.491.229.894-.075.292-.252 1.003-.325 1.283-.107.404-.435.551-.8.401-2.237-.913-3.278-3.361-3.278-6.113 0-4.544 3.833-9.997 11.434-9.997 6.11 0 10.13 4.424 10.13 9.167 0 6.277-3.489 10.966-8.635 10.966-1.725 0-3.351-.933-3.908-1.993 0 0-.93 3.686-1.125 4.397-.339 1.232-1.003 2.467-1.611 3.426 1.439.425 2.96.657 4.535.657 8.836 0 15.999-7.163 15.999-15.999C31.999 7.163 24.836 0 16 0z"/></symbol><symbol id="icon-security" viewBox="0 0 32 32"><path stroke-width=".608" d="M10.537.39h10.927c5.604 0 10.146 4.543 10.146 10.146v10.927c0 5.603-4.543 10.146-10.146 10.146H10.537C4.933 31.609.391 27.066.391 21.463V10.536C.391 4.932 4.934.39 10.537.39z"/><path stroke-width=".608" d="M18.721 10.267a5.37 5.37 0 0 0-2.741-.748 5.37 5.37 0 0 0-2.725.738M20.725 8.408a8.018 8.018 0 0 0-4.756-1.553 8.017 8.017 0 0 0-4.718 1.525M18.035 24.754h-4.071a3.829 3.829 0 0 1-3.829-3.829v-4.071a3.829 3.829 0 0 1 3.829-3.829h4.071a3.83 3.83 0 0 1 3.829 3.829v4.071a3.829 3.829 0 0 1-3.829 3.829z"/><path stroke-width=".608" d="M14.287 18.89a1.714 1.714 0 1 1 3.428 0 1.714 1.714 0 0 1-3.428 0z"/></symbol><symbol id="icon-threedots" viewBox="0 0 17 32"><path stroke-width=".323" d="M7.603 14.869h2.263v2.263H7.603v-2.263zM1.785 14.869h2.263v2.263H1.785v-2.263zM13.421 14.869h2.263v2.263h-2.263v-2.263z"/></symbol><symbol id="icon-twitter" viewBox="0 0 32 32"><path d="M32 5.824a12.816 12.816 0 0 1-3.77 1.059 6.715 6.715 0 0 0 2.887-3.723 12.932 12.932 0 0 1-4.172 1.631 6.474 6.474 0 0 0-4.791-2.124c-3.623 0-6.563 3.014-6.563 6.732 0 .528.056 1.04.169 1.533-5.456-.281-10.293-2.958-13.533-7.036a6.858 6.858 0 0 0-.888 3.388 6.777 6.777 0 0 0 2.921 5.603 6.445 6.445 0 0 1-2.975-.84v.083c0 3.263 2.263 5.984 5.269 6.601a6.451 6.451 0 0 1-2.966.118c.836 2.674 3.259 4.621 6.133 4.673a12.96 12.96 0 0 1-8.154 2.883c-.53 0-1.054-.031-1.566-.092a18.279 18.279 0 0 0 10.064 3.022c12.077 0 18.679-10.256 18.679-19.153 0-.293-.006-.586-.017-.873a13.479 13.479 0 0 0 3.274-3.484z"/></symbol><symbol id="amazon" viewBox="0 0 108 33" fill="none"><g clip-path="url('#clip0_1_56')" fill-rule="evenodd" clip-rule="evenodd"><path d="M66.673 25.328c-6.244 4.609-15.296 7.059-23.092 7.059-10.926 0-20.764-4.039-28.208-10.76-.585-.529-.063-1.25.639-.841 8.032 4.675 17.966 7.489 28.225 7.489 6.92 0 14.527-1.437 21.528-4.405 1.056-.449 1.942.695.908 1.458Z" fill="#F90"/><path d="M69.27 22.362c-.798-1.022-5.278-.484-7.291-.244-.609.073-.705-.46-.155-.845 3.575-2.51 9.431-1.785 10.112-.946.685.849-.18 6.72-3.53 9.522-.515.43-1.006.2-.776-.367.753-1.884 2.44-6.097 1.64-7.12Z" fill="#F90"/><path d="M62.12 3.539v-2.44a.601.601 0 0 1 .62-.618L73.674.48c.348 0 .63.254.63.615v2.092c-.005.352-.3.81-.825 1.536l-5.662 8.086c2.101-.049 4.326.267 6.236 1.34.43.24.545.6.58.951v2.604c0 .357-.393.774-.806.558-3.365-1.763-7.83-1.956-11.551.02-.38.204-.778-.207-.778-.565v-2.474c0-.397.006-1.074.407-1.676l6.56-9.413-5.713-.002c-.349 0-.63-.249-.631-.613ZM83.716.166c4.936 0 7.605 4.238 7.605 9.628 0 5.207-2.947 9.34-7.605 9.34-4.843 0-7.484-4.24-7.484-9.521 0-5.317 2.67-9.447 7.484-9.447Zm.03 3.485c-2.453 0-2.608 3.34-2.608 5.424 0 2.083-.03 6.537 2.578 6.537 2.577 0 2.7-3.592 2.7-5.783 0-1.437-.061-3.161-.497-4.527-.372-1.184-1.117-1.651-2.173-1.651ZM53.406 10.621c0 1.296.031 2.377-.622 3.529-.529.935-1.37 1.512-2.302 1.512-1.277 0-2.023-.972-2.023-2.412 0-2.833 2.542-3.349 4.947-3.349v.72Zm3.354 8.11c-.22.198-.622.204-.786.077-1.136-.879-1.907-2.216-1.907-2.216-1.826 1.86-3.12 2.42-5.483 2.42-2.801 0-4.98-1.731-4.98-5.186 0-2.7 1.463-4.537 3.548-5.436 1.804-.794 4.325-.937 6.254-1.153 0 0 .16-2.084-.404-2.844-.439-.589-1.182-.864-1.867-.864-1.233-.006-2.425.666-2.663 1.957-.067.368-.34.68-.627.648l-3.185-.347a.586.586 0 0 1-.497-.695C44.904 1.182 48.435 0 51.602 0c1.617 0 3.733.432 5.01 1.657 1.617 1.512 1.462 3.527 1.462 5.724v5.182c0 1.56.647 2.243 1.255 3.082.212.305.26.663-.01.884-.68.57-2.56 2.203-2.56 2.203ZM9.801 10.621c0 1.296.032 2.377-.621 3.529-.529.935-1.37 1.512-2.302 1.512-1.277 0-2.023-.972-2.023-2.412 0-2.833 2.542-3.349 4.946-3.349v.72Zm3.354 8.11c-.22.198-.621.204-.785.077-1.137-.879-1.907-2.216-1.907-2.216-1.826 1.86-3.12 2.42-5.484 2.42C2.18 19.011 0 17.28 0 13.825c0-2.7 1.463-4.537 3.547-5.436 1.805-.794 4.326-.937 6.254-1.153 0 0 .162-2.084-.404-2.844-.438-.589-1.182-.864-1.866-.864-1.235-.006-2.427.666-2.663 1.957-.068.368-.34.68-.627.648l-3.185-.347a.584.584 0 0 1-.497-.695C1.299 1.182 4.83 0 7.998 0c1.617 0 3.733.432 5.01 1.657 1.617 1.512 1.462 3.527 1.462 5.724v5.182c0 1.56.647 2.243 1.254 3.082.213.305.261.663-.01.884-.68.57-2.559 2.203-2.559 2.203ZM22.882 9.111c0-1.977-.093-4.707 2.297-4.707 2.36 0 2.05 2.802 2.05 4.707l.003 9.05c0 .326.264.593.597.612h3.323a.627.627 0 0 0 .641-.613V9.11c0-.97-.03-2.407.311-3.269.341-.862 1.18-1.402 1.987-1.402.962 0 1.708.324 1.956 1.473.155.683.093 2.48.093 3.198l.002 9.05c0 .326.262.593.596.612h3.322a.626.626 0 0 0 .641-.613l.004-10.773c0-1.833.217-3.916-.84-5.353-.93-1.293-2.451-1.868-3.85-1.868-1.955 0-3.786 1.006-4.594 3.162-.932-2.156-2.236-3.162-4.316-3.162-2.049 0-3.57 1.006-4.377 3.162h-.063v-2.18a.621.621 0 0 0-.622-.622h-3.104a.62.62 0 0 0-.62.621v17.006c0 .342.277.62.62.62h3.322a.621.621 0 0 0 .621-.62V9.11ZM98.373 18.152a.621.621 0 0 1-.621.622H94.43a.621.621 0 0 1-.62-.622V1.147c0-.343.278-.622.62-.622h3.071c.36 0 .622.29.622.487v2.602h.064c.931-2.335 2.235-3.448 4.532-3.448 1.492 0 2.95.539 3.882 2.012.871 1.364.871 3.663.871 5.316v10.742a.633.633 0 0 1-.639.538h-3.335a.625.625 0 0 1-.591-.538l.005-10.315c0-3.452-1.322-3.553-2.084-3.553-.888 0-1.603.694-1.916 1.341-.464 1.043-.539 2.108-.539 3.258v9.185Z" fill="#221F1F"/></g><defs><clipPath id="clip0_1_56"><path fill="#fff" d="M0 0h108v33H0z"/></clipPath></defs></symbol></defs></svg>