<svg aria-hidden="true" style="position: absolute; width: 0; height: 0; overflow: hidden;" version="1.1" xmlns="http://www.w3.org/2000/svg" xmlns:xlink="http://www.w3.org/1999/xlink">
<defs>
<symbol id="icon-yearwarranty" viewBox="0 0 32 32">
<path stroke-linejoin="round" stroke-linecap="round" stroke-miterlimit="4" stroke-width="1.1111" d="M4.035 3.68h-1.78c-0.955 0-1.728 0.887-1.728 1.981v0.003c0 3.949 1.687 7.591 4.309 9.968"></path>
<path stroke-linejoin="round" stroke-linecap="round" stroke-miterlimit="4" stroke-width="1.1111" d="M27.895 3.68h1.781c0.954 0 1.727 0.887 1.727 1.981v0.003c0 3.949-1.687 7.591-4.309 9.968"></path>
<path stroke-linejoin="round" stroke-linecap="round" stroke-miterlimit="4" stroke-width="1.1111" d="M8.26 30.185h15.411"></path>
<path stroke-linejoin="round" stroke-linecap="round" stroke-miterlimit="4" stroke-width="1.1111" d="M15.965 21.297v8.889"></path>
</symbol>
<symbol id="icon-dayguarantee" viewBox="0 0 32 32">
<path stroke-linejoin="round" stroke-linecap="round" stroke-miterlimit="4" stroke-width="1.1111" d="M28.805 11.703c0 6.173-5.941 11.177-13.273 11.177-7.329 0-13.271-5.004-13.271-11.177s5.942-11.177 13.271-11.177c7.331 0 13.273 5.004 13.273 11.177z"></path>
<path stroke-linejoin="round" stroke-linecap="round" stroke-miterlimit="4" stroke-width="1.1111" d="M12.199 25.807l-3.382 5.597-2.026-5.157-6.166 1.694 3.381-5.595"></path>
<path stroke-linejoin="round" stroke-linecap="round" stroke-miterlimit="4" stroke-width="1.1111" d="M18.866 25.807l3.383 5.597 2.026-5.157 6.166 1.694-3.381-5.595"></path>
</symbol>
<symbol id="icon-advancednetworkprotection" viewBox="0 0 32 32">
<path stroke-linejoin="round" stroke-linecap="round" stroke-miterlimit="4" stroke-width="0.8101" d="M12.479 15.473l2.328 2.322 4.815-4.803"></path>
<path stroke-linejoin="round" stroke-linecap="round" stroke-miterlimit="4" stroke-width="0.8101" d="M16.541 26.712c1.902-1.050 8.687-5.634 8.953-17.719 0.009-0.437-0.265-0.844-0.679-0.987-2.573-0.887-5.566-1.4-8.767-1.4h0.003c-3.2 0-6.193 0.513-8.767 1.4-0.415 0.143-0.689 0.55-0.679 0.987 0.267 12.086 7.052 16.67 8.953 17.719 0.15 0.084 0.319 0.128 0.491 0.128s0.341-0.044 0.491-0.128l-0 0z"></path>
<path stroke-linejoin="miter" stroke-linecap="butt" stroke-miterlimit="4" stroke-width="0.8101" d="M21.463 0.39h-10.927c-5.604 0-10.146 4.543-10.146 10.146v10.927c0 5.604 4.543 10.146 10.146 10.146h10.927c5.604 0 10.146-4.543 10.146-10.146v-10.927c0-5.604-4.543-10.146-10.146-10.146z"></path>
</symbol>
<symbol id="icon-alwaysgettingbetter" viewBox="0 0 32 32">
<path stroke-linejoin="miter" stroke-linecap="butt" stroke-miterlimit="4" stroke-width="0.8101" d="M21.463 0.39h-10.927c-5.604 0-10.146 4.543-10.146 10.146v10.927c0 5.604 4.543 10.146 10.146 10.146h10.927c5.604 0 10.146-4.543 10.146-10.146v-10.927c0-5.604-4.543-10.146-10.146-10.146z"></path>
<path stroke-linejoin="round" stroke-linecap="round" stroke-miterlimit="4" stroke-width="0.8101" d="M8.973 14.46v-1.932c0-2.178 1.631-3.943 3.643-3.943h6.671c2.012 0 3.643 1.765 3.643 3.943v1.932"></path>
<path stroke-linejoin="round" stroke-linecap="round" stroke-miterlimit="4" stroke-width="0.8101" d="M8.973 16.138v3.611c0 2.177 1.631 3.943 3.643 3.943h6.671c2.012 0 3.643-1.765 3.643-3.943v-3.611"></path>
<path stroke-linejoin="round" stroke-linecap="round" stroke-miterlimit="4" stroke-width="0.8101" d="M10.738 12.55l-1.765 1.91-1.765-1.91"></path>
<path stroke-linejoin="round" stroke-linecap="round" stroke-miterlimit="4" stroke-width="0.8101" d="M21.165 18.048l1.765-1.91 1.765 1.91"></path>
</symbol>
<symbol id="icon-appliances" viewBox="0 0 32 32">
<path stroke-linejoin="miter" stroke-linecap="butt" stroke-miterlimit="4" stroke-width="0.4051" d="M21.463 0.643h-10.927c-5.604 0-10.146 4.488-10.146 10.024v10.795c0 5.536 4.543 10.024 10.146 10.024h10.927c5.604 0 10.146-4.488 10.146-10.024v-10.795c0-5.536-4.543-10.024-10.146-10.024z"></path>
<path stroke-linejoin="round" stroke-linecap="round" stroke-miterlimit="4" stroke-width="0.638" d="M22.104 22.095c-3.36 3.32-8.809 3.32-12.169 0s-3.361-8.702 0-12.022c3.36-3.32 8.809-3.32 12.169 0s3.36 8.703 0 12.022z"></path>
<path stroke-linejoin="round" stroke-linecap="round" stroke-miterlimit="4" stroke-width="0.638" d="M18.627 20.205c-0.342 0.342-0.748 0.614-1.197 0.8s-0.93 0.283-1.416 0.285-0.968-0.092-1.418-0.275c-0.45-0.183-0.858-0.452-1.202-0.792s-0.616-0.744-0.802-1.188c-0.185-0.444-0.28-0.92-0.278-1.401s0.1-0.956 0.288-1.399c0.188-0.443 0.464-0.845 0.81-1.182 0.693-0.675 1.629-1.053 2.602-1.049s1.906 0.387 2.595 1.067c0.689 0.68 1.077 1.602 1.080 2.564s-0.378 1.886-1.062 2.571z"></path>
<path stroke-linejoin="round" stroke-linecap="round" stroke-miterlimit="4" stroke-width="0.638" d="M16.020 16.415v2.429"></path>
<path stroke-linejoin="round" stroke-linecap="round" stroke-miterlimit="4" stroke-width="0.638" d="M16.889 11.621c-0.231 0.224-0.543 0.349-0.867 0.348s-0.635-0.129-0.864-0.356c-0.229-0.226-0.359-0.533-0.36-0.853s0.125-0.628 0.352-0.857c0.231-0.224 0.543-0.349 0.867-0.348s0.635 0.129 0.864 0.356c0.229 0.226 0.359 0.533 0.36 0.853s-0.125 0.628-0.352 0.857v0z"></path>
</symbol>
<symbol id="icon-facebook" viewBox="0 0 32 32">
<path d="M16.862 25.263h-12.1c-0.77 0-1.394-0.624-1.394-1.394v-22.474c0-0.77 0.624-1.394 1.394-1.394h22.475c0.77 0 1.394 0.624 1.394 1.394v22.474c0 0.77-0.624 1.394-1.394 1.394h-6.438v-9.783h3.284l0.492-3.813h-3.776v-2.434c0-1.104 0.307-1.856 1.889-1.856l2.019-0.001v-3.41c-0.349-0.046-1.548-0.15-2.942-0.15-2.911 0-4.904 1.777-4.904 5.040v2.812h-3.292v3.813h3.292v9.783z"></path>
</symbol>
<symbol id="icon-fastandeasysetup" viewBox="0 0 32 32">
<path stroke-linejoin="round" stroke-linecap="round" stroke-miterlimit="4" stroke-width="0.8101" d="M23.668 19.063c0-1.86-1.506-3.369-3.363-3.369h-3.671l-0.509-6.595c-0.024-0.296-0.162-0.572-0.385-0.769s-0.512-0.301-0.81-0.289-0.578 0.137-0.785 0.351c-0.207 0.214-0.323 0.499-0.324 0.796l0.010 13.244-2.341-2.050c-0.44-0.386-1.003-0.604-1.588-0.615s-1.156 0.184-1.611 0.553c0 0 4.103 5.015 7.038 6.406"></path>
<path stroke-linejoin="round" stroke-linecap="round" stroke-miterlimit="4" stroke-width="0.8101" d="M11.106 11.369v-3.597c-0-0.586 0.232-1.149 0.646-1.564s0.976-0.648 1.563-0.649h3.314c0.29 0 0.578 0.058 0.846 0.169s0.512 0.274 0.717 0.48c0.205 0.205 0.368 0.449 0.479 0.718s0.168 0.556 0.168 0.846v3.597"></path>
<path stroke-linejoin="miter" stroke-linecap="butt" stroke-miterlimit="4" stroke-width="0.8101" d="M21.463 0.39h-10.927c-5.604 0-10.146 4.543-10.146 10.146v10.927c0 5.604 4.543 10.146 10.146 10.146h10.927c5.604 0 10.146-4.543 10.146-10.146v-10.927c0-5.604-4.543-10.146-10.146-10.146z"></path>
</symbol>
<symbol id="icon-freeshipping" viewBox="0 0 32 32">
<path stroke-linejoin="round" stroke-linecap="round" stroke-miterlimit="4" stroke-width="1.1111" d="M1.228 22.308v-21.538h22.274c0.625 0 1.176 0.589 1.352 1.446l1.797 10.794 3.326 1.734c0.447 0.354 0.725 1.028 0.725 1.758v5.806"></path>
<path stroke-linejoin="round" stroke-linecap="round" stroke-miterlimit="4" stroke-width="1.1111" d="M15.965 22.308v-17.435"></path>
<path stroke-linejoin="round" stroke-linecap="round" stroke-miterlimit="4" stroke-width="1.1111" d="M27.594 26.41h3.809"></path>
<path stroke-linejoin="round" stroke-linecap="round" stroke-miterlimit="4" stroke-width="1.1111" d="M11.352 26.41h9.226"></path>
<path stroke-linejoin="round" stroke-linecap="round" stroke-miterlimit="4" stroke-width="1.1111" d="M0.526 26.41h3.808"></path>
<path stroke-linejoin="round" stroke-linecap="round" stroke-miterlimit="4" stroke-width="1.1111" d="M11.353 26.41c0 2.832-1.571 5.128-3.508 5.128s-3.509-2.295-3.509-5.128c0-2.832 1.572-5.128 3.509-5.128s3.508 2.295 3.508 5.128z"></path>
<path d="M9.16 26.41c0 1.061-0.589 1.923-1.316 1.923s-1.316-0.862-1.316-1.923c0-1.061 0.589-1.923 1.316-1.923s1.316 0.861 1.316 1.923z"></path>
<path stroke-linejoin="round" stroke-linecap="round" stroke-miterlimit="4" stroke-width="1.1111" d="M27.595 26.41c0 2.832-1.571 5.128-3.508 5.128-1.938 0-3.509-2.295-3.509-5.128s1.572-5.128 3.509-5.128c1.937 0 3.508 2.295 3.508 5.128z"></path>
<path d="M25.402 26.41c0 1.061-0.59 1.923-1.316 1.923s-1.316-0.862-1.316-1.923c0-1.061 0.589-1.923 1.316-1.923s1.316 0.861 1.316 1.923z"></path>
<path stroke-linejoin="round" stroke-linecap="round" stroke-miterlimit="4" stroke-width="1.1111" d="M26.651 13.008h-6.812v-8.138h5.457"></path>
</symbol>
<symbol id="icon-freesupport" viewBox="0 0 32 32">
<path stroke-linejoin="round" stroke-linecap="round" stroke-miterlimit="4" stroke-width="1.1111" d="M20.6 5.162c0 2.56-2.075 4.635-4.635 4.635s-4.636-2.075-4.636-4.635c0-2.56 2.076-4.635 4.636-4.635s4.635 2.075 4.635 4.635z"></path>
<path stroke-linejoin="round" stroke-linecap="round" stroke-miterlimit="4" stroke-width="1.1111" d="M0.527 31.177h30.877"></path>
<path stroke-linejoin="round" stroke-linecap="round" stroke-miterlimit="4" stroke-width="1.1111" d="M23.436 28.37v-5.836c0-0.853-0.692-1.544-1.544-1.544h-11.854c-0.853 0-1.543 0.691-1.543 1.544v5.836"></path>
<path stroke-linejoin="round" stroke-linecap="round" stroke-miterlimit="4" stroke-width="1.1111" d="M27.664 28.338c0.851-0.983 1.085-2.357 0.607-3.566l-2.707-6.849c-0.932-2.356-3.208-3.904-5.743-3.904h-7.712c-2.535 0-4.812 1.548-5.743 3.904l-2.708 6.849c-0.478 1.209-0.243 2.583 0.608 3.566"></path>
</symbol>
<symbol id="icon-instagram" viewBox="0 0 32 32">
<path d="M16 0c-4.345 0-4.89 0.018-6.597 0.096-1.703 0.078-2.866 0.348-3.884 0.744-1.052 0.409-1.944 0.956-2.834 1.845s-1.437 1.782-1.845 2.834c-0.396 1.018-0.666 2.181-0.744 3.884-0.078 1.707-0.096 2.251-0.096 6.597s0.018 4.89 0.096 6.597c0.078 1.703 0.348 2.866 0.744 3.884 0.409 1.052 0.956 1.944 1.845 2.834s1.782 1.437 2.834 1.846c1.018 0.395 2.181 0.666 3.884 0.744 1.707 0.078 2.251 0.096 6.597 0.096s4.89-0.018 6.597-0.096c1.703-0.078 2.866-0.348 3.884-0.744 1.052-0.409 1.944-0.956 2.834-1.846s1.437-1.782 1.846-2.834c0.395-1.018 0.666-2.181 0.744-3.884 0.078-1.707 0.096-2.252 0.096-6.597s-0.018-4.89-0.096-6.597c-0.078-1.703-0.348-2.866-0.744-3.884-0.409-1.052-0.956-1.944-1.846-2.834s-1.782-1.437-2.834-1.845c-1.018-0.396-2.181-0.666-3.884-0.744-1.707-0.078-2.252-0.096-6.597-0.096zM16 2.883c4.272 0 4.778 0.016 6.465 0.093 1.56 0.071 2.407 0.332 2.971 0.551 0.747 0.29 1.28 0.637 1.84 1.197s0.907 1.093 1.197 1.84c0.219 0.564 0.48 1.411 0.551 2.971 0.077 1.687 0.093 2.193 0.093 6.465s-0.016 4.778-0.093 6.465c-0.071 1.56-0.332 2.407-0.551 2.971-0.29 0.747-0.637 1.28-1.197 1.84s-1.093 0.907-1.84 1.197c-0.564 0.219-1.411 0.48-2.971 0.551-1.687 0.077-2.193 0.093-6.465 0.093s-4.778-0.016-6.465-0.093c-1.56-0.071-2.407-0.332-2.971-0.551-0.747-0.29-1.28-0.637-1.84-1.197s-0.907-1.093-1.197-1.84c-0.219-0.564-0.48-1.411-0.551-2.971-0.077-1.687-0.093-2.193-0.093-6.465s0.016-4.778 0.093-6.465c0.071-1.56 0.332-2.407 0.551-2.971 0.29-0.747 0.637-1.28 1.197-1.84s1.093-0.907 1.84-1.197c0.564-0.219 1.411-0.48 2.971-0.551 1.687-0.077 2.193-0.093 6.465-0.093zM7.784 16c0-4.538 3.679-8.216 8.216-8.216s8.216 3.678 8.216 8.216c0 4.538-3.678 8.216-8.216 8.216s-8.216-3.678-8.216-8.216zM16 21.333c-2.945 0-5.333-2.388-5.333-5.333s2.388-5.333 5.333-5.333c2.945 0 5.333 2.388 5.333 5.333s-2.388 5.333-5.333 5.333zM24.541 9.379c1.060 0 1.92-0.86 1.92-1.92s-0.86-1.92-1.92-1.92c-1.060 0-1.92 0.86-1.92 1.92s0.86 1.92 1.92 1.92z"></path>
</symbol>
<symbol id="icon-lighting" viewBox="0 0 32 32">
<path stroke-linejoin="miter" stroke-linecap="butt" stroke-miterlimit="4" stroke-width="0.4051" d="M21.463 0.643h-10.927c-5.604 0-10.146 4.488-10.146 10.024v10.795c0 5.536 4.543 10.024 10.146 10.024h10.927c5.604 0 10.146-4.488 10.146-10.024v-10.795c0-5.536-4.543-10.024-10.146-10.024z"></path>
<path stroke-linejoin="round" stroke-linecap="round" stroke-miterlimit="4" stroke-width="0.638" d="M12.594 21.257h6.492"></path>
<path stroke-linejoin="round" stroke-linecap="round" stroke-miterlimit="4" stroke-width="0.638" d="M13.522 22.876h4.638"></path>
<path stroke-linejoin="round" stroke-linecap="round" stroke-miterlimit="4" stroke-width="0.638" d="M17.232 24.495h-2.782"></path>
<path stroke-linejoin="round" stroke-linecap="round" stroke-miterlimit="4" stroke-width="0.638" d="M19.060 19.637c0-0.871 0.218-1.729 0.635-2.498l1.373-2.537c0.008-0.015 0.017-0.029 0.024-0.044l0.009-0.017h-0.003c0.287-0.604 0.437-1.262 0.437-1.929 0-2.778-2.549-5.030-5.694-5.030s-5.694 2.252-5.694 5.030c0 0.684 0.157 1.335 0.437 1.929h-0.002l0.009 0.017c0.007 0.015 0.016 0.030 0.025 0.045l1.372 2.536c0.417 0.769 0.635 1.627 0.635 2.499"></path>
</symbol>
<symbol id="icon-linkedin" viewBox="0 0 32 32">
<path d="M3.767 8.311h-0.045c-2.258 0-3.722-1.511-3.722-3.426 0-1.952 1.507-3.431 3.81-3.431 2.301 0 3.716 1.475 3.761 3.426 0 1.915-1.46 3.431-3.804 3.431zM32 30.545h-7.072v-10.227c0-2.677-1.106-4.504-3.539-4.504-1.861 0-2.895 1.233-3.377 2.422-0.159 0.376-0.156 0.881-0.153 1.402v0c0 0.071 0.001 0.142 0.001 0.213v10.694h-7.007c0 0 0.090-18.116 0-19.762h7.007v3.101c0.414-1.356 2.653-3.291 6.226-3.291 4.433 0 7.915 2.843 7.915 8.964v10.988zM7.044 10.783h-6.237v19.762h6.237v-19.762z"></path>
</symbol>
<symbol id="icon-mainlogo" viewBox="0 0 64 32">
<path d="M24.38 25.152c-1.355 0.918-2.958 1.407-4.597 1.401-2.073 0.011-4.075-0.751-5.613-2.135-0.12-0.106 0-0.248 0.124-0.168 1.491 0.856 3.161 1.357 4.879 1.464s3.437-0.184 5.024-0.849c0.213-0.088 0.386 0.137 0.182 0.287z"></path>
<path d="M24.899 24.564c-0.16-0.203-1.052-0.097-1.455-0.049-0.12 0-0.138-0.088-0.031-0.168 0.714-0.495 1.881-0.354 2.014-0.186s-0.035 1.326-0.701 1.888c-0.102 0.084-0.2 0.040-0.155-0.071 0.151-0.376 0.484-1.211 0.328-1.415zM23.475 20.832v-0.486c-0.001-0.016 0.002-0.033 0.008-0.048s0.015-0.029 0.027-0.041 0.026-0.021 0.041-0.027c0.015-0.006 0.032-0.009 0.048-0.008h2.165c0.016-0.001 0.033 0.002 0.048 0.008s0.029 0.015 0.041 0.027c0.012 0.012 0.021 0.026 0.027 0.041s0.009 0.032 0.008 0.048v0.416c0 0.071-0.058 0.159-0.164 0.305l-1.127 1.605c0.431-0.025 0.86 0.067 1.242 0.265 0.034 0.018 0.062 0.045 0.082 0.078s0.032 0.070 0.033 0.108v0.517c0 0.071-0.080 0.155-0.16 0.111-0.355-0.183-0.749-0.278-1.149-0.278s-0.794 0.095-1.149 0.278c-0.075 0.040-0.155-0.040-0.155-0.111v-0.477c-0.008-0.116 0.020-0.232 0.080-0.332l1.313-1.879h-1.136c-0.016 0.001-0.032-0.002-0.047-0.008s-0.029-0.014-0.040-0.026-0.021-0.024-0.027-0.039c-0.006-0.015-0.010-0.031-0.010-0.047zM27.778 20.854c-0.488 0-0.519 0.663-0.519 1.074s0 1.295 0.515 1.295c0.515 0 0.537-0.712 0.537-1.145 0.010-0.298-0.025-0.596-0.102-0.884-0.020-0.099-0.077-0.188-0.159-0.248s-0.183-0.088-0.285-0.079l0.013-0.013zM27.778 20.16c0.981 0 1.513 0.844 1.513 1.91s-0.586 1.852-1.513 1.852-1.491-0.84-1.491-1.888c0-1.048 0.532-1.875 1.491-1.875zM22.405 23.843c-0.023 0.015-0.050 0.022-0.078 0.022s-0.054-0.008-0.078-0.022c-0.151-0.125-0.28-0.275-0.382-0.442-0.13 0.161-0.297 0.289-0.487 0.373s-0.397 0.121-0.605 0.109c-0.136 0.008-0.272-0.014-0.398-0.064s-0.241-0.126-0.335-0.224c-0.094-0.098-0.166-0.215-0.21-0.343s-0.060-0.264-0.046-0.399c-0.007-0.23 0.057-0.457 0.183-0.65s0.308-0.343 0.523-0.429c0.403-0.133 0.823-0.209 1.247-0.226 0.020-0.192-0.008-0.387-0.080-0.566-0.045-0.055-0.102-0.099-0.167-0.128s-0.135-0.045-0.206-0.044c-0.121-0.009-0.24 0.026-0.338 0.097s-0.166 0.175-0.195 0.292c0 0.075-0.067 0.133-0.124 0.128l-0.634-0.049c-0.016-0.003-0.031-0.008-0.045-0.017s-0.025-0.020-0.034-0.033-0.015-0.028-0.019-0.044c-0.003-0.016-0.003-0.032 0-0.048 0.146-0.774 0.852-1.008 1.482-1.008 0.361-0.013 0.715 0.103 0.998 0.327 0.319 0.301 0.288 0.703 0.288 1.136v1.030c0.002 0.228 0.093 0.447 0.253 0.61 0.022 0.023 0.035 0.054 0.035 0.086s-0.013 0.063-0.035 0.086l-0.51 0.442-0.004-0.004zM21.74 22.234c0.024 0.241-0.019 0.484-0.124 0.703-0.041 0.084-0.104 0.156-0.182 0.209s-0.168 0.084-0.262 0.092c-0.257 0-0.404-0.195-0.404-0.482 0-0.561 0.506-0.663 0.985-0.663v0.141h-0.013zM13.727 23.843c-0.023 0.015-0.050 0.022-0.078 0.022s-0.054-0.008-0.078-0.022c-0.151-0.125-0.28-0.275-0.382-0.442-0.132 0.159-0.299 0.286-0.488 0.37s-0.396 0.122-0.603 0.112c-0.133 0.005-0.266-0.017-0.389-0.067s-0.235-0.125-0.328-0.22c-0.092-0.096-0.163-0.21-0.208-0.335s-0.062-0.258-0.051-0.39c-0.008-0.23 0.056-0.457 0.182-0.65s0.309-0.343 0.523-0.429c0.403-0.133 0.823-0.209 1.247-0.226 0.020-0.193-0.009-0.387-0.084-0.566-0.043-0.056-0.099-0.101-0.163-0.131s-0.134-0.044-0.205-0.042c-0.121-0.009-0.241 0.025-0.339 0.096s-0.166 0.175-0.194 0.293c0 0.075-0.067 0.133-0.124 0.128l-0.634-0.066c-0.016-0.003-0.031-0.008-0.045-0.017s-0.025-0.020-0.034-0.033c-0.009-0.013-0.015-0.028-0.019-0.044s-0.003-0.032 0-0.048c0.146-0.774 0.852-1.008 1.482-1.008 0.36-0.014 0.713 0.102 0.994 0.327 0.324 0.301 0.293 0.703 0.293 1.136v1.030c-0.002 0.224 0.078 0.441 0.226 0.61 0.012 0.011 0.021 0.025 0.027 0.039s0.010 0.031 0.010 0.047c0 0.016-0.003 0.032-0.010 0.047s-0.016 0.028-0.027 0.039l-0.51 0.442 0.009-0.004zM13.061 22.234c0.024 0.241-0.019 0.484-0.124 0.703-0.042 0.084-0.104 0.156-0.182 0.208s-0.168 0.084-0.261 0.092c-0.253 0-0.399-0.195-0.399-0.482 0-0.561 0.506-0.663 0.985-0.663v0.141h-0.018zM15.661 21.938c0-0.393 0-0.933 0.444-0.933s0.404 0.553 0.404 0.933v1.795c-0 0.031 0.012 0.061 0.034 0.083s0.051 0.035 0.082 0.037h0.661c0.016 0.001 0.033-0.002 0.048-0.008s0.029-0.014 0.041-0.025c0.012-0.011 0.022-0.024 0.028-0.039s0.011-0.031 0.011-0.047v-1.795c-0.013-0.218 0.008-0.438 0.062-0.65 0.032-0.080 0.086-0.148 0.156-0.198s0.153-0.078 0.239-0.081c0.091-0.013 0.182 0.011 0.256 0.066s0.122 0.136 0.135 0.226c0.016 0.212 0.016 0.425 0 0.637v1.795c0.001 0.031 0.014 0.061 0.036 0.083s0.052 0.035 0.083 0.036h0.661c0.016 0.001 0.033-0.002 0.048-0.008s0.029-0.014 0.041-0.025c0.012-0.011 0.022-0.024 0.028-0.039s0.011-0.031 0.011-0.047v-2.14c0.056-0.363-0.003-0.733-0.169-1.061-0.089-0.117-0.204-0.212-0.337-0.277s-0.279-0.097-0.426-0.094c-0.2-0.006-0.397 0.052-0.562 0.165s-0.29 0.275-0.357 0.463c-0.056-0.183-0.169-0.343-0.323-0.456s-0.341-0.173-0.533-0.172c-0.197-0.008-0.391 0.049-0.552 0.162s-0.279 0.277-0.336 0.465v-0.442c-0.001-0.032-0.015-0.062-0.038-0.085s-0.054-0.035-0.086-0.035h-0.572c-0.016-0.001-0.032 0.002-0.047 0.008s-0.029 0.014-0.040 0.026c-0.012 0.011-0.021 0.024-0.027 0.039s-0.010 0.031-0.010 0.047v3.373c-0.001 0.016 0.002 0.033 0.008 0.048s0.015 0.029 0.027 0.041c0.012 0.012 0.026 0.021 0.041 0.027s0.032 0.009 0.048 0.008h0.679c0.016 0 0.032-0.003 0.047-0.009s0.028-0.015 0.039-0.027c0.011-0.012 0.020-0.025 0.026-0.040s0.008-0.031 0.008-0.047v-1.768l-0.018-0.013zM30.689 23.728c0.001 0.016-0.002 0.033-0.008 0.048s-0.015 0.029-0.027 0.041-0.026 0.021-0.041 0.027c-0.015 0.006-0.032 0.009-0.048 0.008h-0.661c-0.033 0-0.065-0.013-0.088-0.036s-0.036-0.055-0.036-0.088v-3.373c0.001-0.032 0.015-0.062 0.038-0.085s0.054-0.035 0.086-0.035h0.612c0.028-0.002 0.056 0.007 0.079 0.024s0.039 0.042 0.045 0.069v0.517c0.046-0.199 0.159-0.375 0.321-0.5s0.362-0.19 0.566-0.185c0.152-0.005 0.304 0.030 0.439 0.1s0.25 0.174 0.333 0.302c0.146 0.331 0.205 0.693 0.173 1.052v2.131c-0.003 0.030-0.018 0.058-0.041 0.077s-0.053 0.030-0.083 0.029h-0.639c-0.029-0.001-0.056-0.012-0.078-0.032s-0.035-0.046-0.038-0.075v-2.047c0-0.685-0.266-0.703-0.417-0.703-0.082 0.005-0.161 0.032-0.229 0.079s-0.12 0.111-0.153 0.186c-0.082 0.205-0.118 0.425-0.107 0.645v1.821z"></path>
<path d="M4.911 23.843l-0.053-0.345c-0.156 0.135-0.335 0.241-0.528 0.314-0.182 0.074-0.376 0.113-0.572 0.115-0.137 0.007-0.275-0.013-0.404-0.059s-0.248-0.118-0.35-0.211c-0.096-0.092-0.171-0.204-0.22-0.327s-0.071-0.256-0.064-0.389c-0.006-0.147 0.023-0.293 0.083-0.427s0.15-0.253 0.263-0.347c0.265-0.202 0.594-0.304 0.927-0.287 0.283 0.004 0.565 0.043 0.839 0.115v-0.442c0.010-0.091 0.001-0.183-0.028-0.27s-0.075-0.167-0.136-0.235c-0.161-0.113-0.358-0.165-0.555-0.146-0.398 0.005-0.792 0.075-1.167 0.208v-0.46c0.185-0.093 0.382-0.159 0.586-0.195 0.229-0.048 0.463-0.072 0.697-0.071 0.331-0.027 0.66 0.065 0.927 0.261 0.106 0.103 0.188 0.227 0.24 0.364s0.073 0.285 0.062 0.431v2.401h-0.546zM3.912 23.432c0.335-0.013 0.657-0.132 0.918-0.34v-0.672c-0.231-0.058-0.468-0.088-0.705-0.088-0.497 0-0.75 0.195-0.75 0.575-0.005 0.071 0.006 0.142 0.030 0.209s0.062 0.128 0.112 0.18c0.054 0.048 0.117 0.085 0.186 0.109s0.141 0.033 0.213 0.028h-0.004zM8.718 23.843v-2.246c0.015-0.184-0.037-0.368-0.146-0.517-0.057-0.058-0.127-0.103-0.203-0.131s-0.159-0.039-0.24-0.032c-0.369 0.006-0.728 0.123-1.029 0.336v2.591h-0.661v-3.36h0.55l0.067 0.371c0.38-0.299 0.848-0.463 1.331-0.469 0.134-0.010 0.268 0.008 0.395 0.052s0.243 0.114 0.342 0.204c0.091 0.102 0.161 0.221 0.204 0.35s0.060 0.266 0.048 0.402v2.467l-0.657-0.018zM36.772 23.715c-0.275 0.137-0.58 0.205-0.887 0.199-0.22 0.014-0.44-0.018-0.646-0.094s-0.394-0.195-0.552-0.348c-0.275-0.377-0.422-0.832-0.422-1.298s0.148-0.92 0.422-1.298c0.159-0.154 0.35-0.274 0.558-0.35s0.431-0.108 0.653-0.092c0.29-0.002 0.577 0.062 0.839 0.186v0.469c-0.237-0.083-0.485-0.129-0.737-0.137-0.146-0.014-0.294 0.004-0.433 0.053s-0.265 0.127-0.37 0.23c-0.184 0.256-0.271 0.57-0.244 0.884v0.084c-0.025 0.315 0.063 0.628 0.248 0.884 0.102 0.101 0.226 0.179 0.361 0.228s0.28 0.068 0.424 0.055c0.267-0.005 0.532-0.049 0.785-0.133v0.477zM38.839 23.94c-0.22 0.012-0.44-0.023-0.644-0.104s-0.389-0.205-0.54-0.365c-0.28-0.379-0.431-0.838-0.431-1.309s0.151-0.929 0.431-1.309c0.32-0.301 0.743-0.469 1.182-0.469s0.863 0.168 1.182 0.469c0.28 0.379 0.431 0.838 0.431 1.309s-0.151 0.929-0.431 1.309c-0.15 0.159-0.334 0.284-0.538 0.365s-0.423 0.116-0.642 0.104zM38.839 23.41c0.621 0 0.936-0.416 0.936-1.251s-0.315-1.242-0.936-1.242c-0.621 0-0.936 0.411-0.936 1.242s0.311 1.251 0.936 1.251zM45.561 23.843v-2.281c0.013-0.171-0.030-0.342-0.124-0.486-0.050-0.056-0.111-0.099-0.181-0.127s-0.144-0.039-0.219-0.032c-0.347 0.006-0.685 0.109-0.976 0.296 0.002 0.034 0.002 0.068 0 0.102v2.529h-0.657v-2.281c0.011-0.171-0.032-0.341-0.124-0.486-0.050-0.056-0.111-0.099-0.181-0.127s-0.144-0.039-0.219-0.032c-0.345 0.003-0.682 0.104-0.972 0.292v2.653h-0.657v-3.36h0.55l0.067 0.34c0.36-0.269 0.793-0.424 1.242-0.442 0.17-0.020 0.343 0.013 0.494 0.095s0.273 0.207 0.349 0.36c0.381-0.296 0.848-0.461 1.331-0.469 0.129-0.009 0.259 0.009 0.38 0.053s0.232 0.113 0.325 0.203c0.172 0.211 0.253 0.481 0.226 0.752v2.467l-0.657-0.018zM47.19 25.205v-4.722h0.55l0.062 0.345c0.305-0.283 0.706-0.441 1.123-0.442 0.192-0.011 0.384 0.024 0.561 0.1s0.332 0.194 0.455 0.342c0.266 0.368 0.397 0.816 0.373 1.269 0.028 0.475-0.111 0.944-0.395 1.326-0.122 0.158-0.281 0.285-0.462 0.371s-0.38 0.127-0.581 0.12c-0.381 0.008-0.75-0.132-1.029-0.389v1.68h-0.657zM48.738 20.916c-0.321 0.004-0.632 0.111-0.887 0.305v1.844c0.253 0.2 0.565 0.312 0.887 0.318 0.612 0 0.914-0.411 0.914-1.229 0.026-0.326-0.051-0.653-0.222-0.933-0.080-0.105-0.185-0.188-0.307-0.242s-0.254-0.075-0.386-0.063zM53.104 23.843l-0.053-0.345c-0.156 0.135-0.335 0.241-0.528 0.314-0.183 0.074-0.379 0.113-0.577 0.115-0.137 0.007-0.275-0.013-0.404-0.060s-0.248-0.118-0.35-0.21c-0.094-0.093-0.168-0.205-0.216-0.328s-0.070-0.256-0.063-0.388c-0.006-0.146 0.022-0.292 0.081-0.426s0.148-0.253 0.261-0.347c0.267-0.202 0.597-0.304 0.932-0.287 0.283 0.004 0.565 0.043 0.839 0.115v-0.442c0.009-0.091-0.001-0.182-0.029-0.269s-0.074-0.167-0.135-0.235c-0.161-0.113-0.358-0.165-0.555-0.146-0.399 0.005-0.795 0.075-1.171 0.208v-0.46c0.185-0.093 0.382-0.159 0.586-0.195 0.229-0.048 0.462-0.071 0.697-0.071 0.332-0.026 0.662 0.066 0.932 0.261 0.105 0.103 0.186 0.228 0.237 0.365s0.072 0.285 0.060 0.431v2.401h-0.541zM52.106 23.432c0.335-0.013 0.657-0.132 0.918-0.34v-0.672c-0.231-0.058-0.468-0.088-0.706-0.088-0.501 0-0.75 0.195-0.75 0.575-0.005 0.071 0.005 0.142 0.028 0.209s0.061 0.128 0.109 0.18c0.11 0.096 0.253 0.145 0.399 0.137zM56.902 23.843v-2.246c0.014-0.184-0.036-0.366-0.142-0.517-0.057-0.058-0.127-0.103-0.203-0.131s-0.159-0.039-0.24-0.032c-0.369 0.006-0.728 0.123-1.029 0.336v2.591h-0.657v-3.36h0.55l0.067 0.371c0.379-0.299 0.848-0.464 1.331-0.469 0.135-0.010 0.27 0.008 0.397 0.052s0.244 0.114 0.344 0.204c0.177 0.202 0.266 0.466 0.248 0.734v2.467h-0.666zM61.259 20.483l-1.535 3.948c-0.081 0.25-0.225 0.475-0.417 0.654-0.175 0.137-0.394 0.208-0.617 0.199-0.176 0.001-0.35-0.030-0.515-0.093v-0.469c0.123 0.031 0.25 0.046 0.377 0.044 0.141 0.008 0.28-0.036 0.39-0.124 0.12-0.124 0.207-0.276 0.253-0.442l0.129-0.336-1.358-3.391h0.705l0.972 2.75 0.936-2.75h0.679v0.009zM15.91 6.906h-11.274v-0.062c0.040-0.395 0.132-0.783 0.275-1.154 0.477-1.385 1.431-2.557 2.693-3.307 0.854-0.481 1.824-0.719 2.804-0.685 0.737-0.004 1.468 0.136 2.152 0.411 0.65 0.257 1.245 0.635 1.752 1.114 0.489 0.464 0.885 1.016 1.167 1.627 0.294 0.622 0.445 1.302 0.444 1.99l-0.013 0.066zM10.51-0c-1.076-0.014-2.143 0.195-3.132 0.615-0.928 0.405-1.767 0.989-2.467 1.72-0.704 0.742-1.254 1.615-1.619 2.569-0.386 1.032-0.579 2.126-0.568 3.227-0.014 1.13 0.175 2.253 0.559 3.316 0.35 0.961 0.894 1.842 1.597 2.586 0.703 0.733 1.552 1.31 2.494 1.693 1.029 0.415 2.13 0.62 3.239 0.606 1.318 0.014 2.625-0.249 3.833-0.774 1.182-0.544 2.184-1.412 2.888-2.502l-1.398-1.172c-0.542 0.855-1.309 1.545-2.218 1.994-0.943 0.49-1.989 0.748-3.053 0.752-1.035 0.042-2.062-0.195-2.973-0.685-0.719-0.416-1.345-0.976-1.837-1.645-0.435-0.589-0.755-1.253-0.945-1.959-0.153-0.54-0.239-1.097-0.257-1.658v-0.062h13.169v-1.375c-0.007-0.906-0.172-1.803-0.488-2.653-0.31-0.861-0.785-1.654-1.398-2.334-0.637-0.696-1.41-1.256-2.272-1.645-0.995-0.429-2.071-0.64-3.155-0.619v0.004zM33.307 6.906h-11.27v-0.062c0.040-0.395 0.132-0.783 0.275-1.154 0.216-0.621 0.529-1.205 0.927-1.729 0.483-0.635 1.086-1.169 1.775-1.574 0.853-0.483 1.824-0.72 2.804-0.685 0.736-0.004 1.465 0.136 2.147 0.411 0.658 0.254 1.261 0.632 1.775 1.114 0.474 0.467 0.855 1.019 1.123 1.627 0.292 0.623 0.443 1.302 0.444 1.989v0.062zM27.911-0c-1.077-0.014-2.145 0.195-3.137 0.615-0.925 0.404-1.761 0.987-2.458 1.715-0.705 0.741-1.256 1.614-1.619 2.569-0.39 1.033-0.584 2.128-0.572 3.232-0.013 1.129 0.175 2.252 0.555 3.316 0.353 0.961 0.898 1.841 1.602 2.586 0.703 0.733 1.552 1.31 2.494 1.693 1.028 0.415 2.13 0.621 3.239 0.606 1.318 0.014 2.625-0.249 3.833-0.774 1.179-0.545 2.178-1.413 2.88-2.502l-1.398-1.172c-0.546 0.859-1.322 1.55-2.241 1.994-0.943 0.49-1.989 0.748-3.053 0.752-1.035 0.042-2.061-0.195-2.973-0.685-0.719-0.416-1.345-0.976-1.837-1.645-0.432-0.589-0.748-1.253-0.932-1.959-0.153-0.54-0.24-1.097-0.257-1.658v-0.062h13.186v-1.375c-0.003-0.905-0.162-1.802-0.47-2.653-0.31-0.861-0.785-1.654-1.398-2.334-0.637-0.695-1.408-1.254-2.267-1.645-0.995-0.428-2.071-0.639-3.155-0.619l-0.022 0.004zM52.58 14.629c-0.896 0.012-1.785-0.163-2.609-0.513-0.751-0.325-1.428-0.797-1.992-1.388-0.554-0.591-0.979-1.289-1.251-2.051-0.574-1.625-0.574-3.397 0-5.022 0.273-0.763 0.699-1.462 1.251-2.056 0.564-0.59 1.242-1.060 1.992-1.384 1.672-0.684 3.546-0.684 5.218 0 0.751 0.317 1.428 0.787 1.987 1.379s0.988 1.294 1.26 2.061c0.574 1.625 0.574 3.397 0 5.022-0.274 0.762-0.701 1.46-1.256 2.051-0.563 0.592-1.241 1.064-1.992 1.388-0.824 0.35-1.713 0.525-2.609 0.513zM52.58-0c-1.13-0.007-2.25 0.202-3.301 0.615-0.975 0.377-1.859 0.954-2.596 1.693-0.728 0.743-1.301 1.622-1.686 2.586-0.409 1.042-0.612 2.153-0.599 3.272-0.012 1.122 0.195 2.236 0.608 3.28 0.385 0.965 0.958 1.844 1.686 2.586 0.736 0.736 1.617 1.312 2.587 1.693 1.053 0.41 2.175 0.616 3.305 0.606 1.126 0.012 2.244-0.194 3.292-0.606 0.973-0.381 1.857-0.958 2.596-1.694s1.319-1.616 1.703-2.586c0.81-2.112 0.81-4.448 0-6.561-0.388-0.967-0.967-1.847-1.704-2.586-0.743-0.731-1.628-1.304-2.6-1.684-1.048-0.412-2.166-0.617-3.292-0.606v-0.009zM37.508 15.925h1.912v-8.471c-0.005-0.735 0.098-1.466 0.306-2.171 0.194-0.647 0.517-1.249 0.95-1.768 0.439-0.516 0.994-0.922 1.619-1.185 0.715-0.299 1.483-0.45 2.258-0.442v-1.768c-2.218 0.044-3.971 0.725-5.182 2.016-1.992 2.118-1.864 5.195-1.864 5.226v8.564z"></path>
</symbol>
<symbol id="icon-pinterest" viewBox="0 0 32 32">
<path d="M16.001 0c-8.836 0-16.001 7.163-16.001 16.001 0 6.55 3.94 12.179 9.579 14.654-0.045-1.116-0.008-2.459 0.277-3.675 0.309-1.298 2.058-8.717 2.058-8.717s-0.51-1.022-0.51-2.533c0-2.371 1.375-4.141 3.086-4.141 1.454 0 2.158 1.093 2.158 2.403 0 1.462-0.933 3.65-1.413 5.677-0.401 1.699 0.85 3.082 2.525 3.082 3.031 0 5.073-3.893 5.073-8.507 0-3.505-2.361-6.13-6.657-6.13-4.852 0-7.876 3.618-7.876 7.66 0 1.396 0.41 2.378 1.054 3.138 0.297 0.352 0.337 0.491 0.229 0.894-0.075 0.292-0.252 1.003-0.325 1.283-0.107 0.404-0.435 0.551-0.8 0.401-2.237-0.913-3.278-3.361-3.278-6.113 0-4.544 3.833-9.997 11.434-9.997 6.11 0 10.13 4.424 10.13 9.167 0 6.277-3.489 10.966-8.635 10.966-1.725 0-3.351-0.933-3.908-1.993 0 0-0.93 3.686-1.125 4.397-0.339 1.232-1.003 2.467-1.611 3.426 1.439 0.425 2.96 0.657 4.535 0.657 8.836 0 15.999-7.163 15.999-15.999 0-8.838-7.163-16.001-15.999-16.001z"></path>
</symbol>
<symbol id="icon-security" viewBox="0 0 32 32">
<path stroke-linejoin="miter" stroke-linecap="butt" stroke-miterlimit="4" stroke-width="0.6076" d="M10.537 0.39h10.927c5.604 0 10.146 4.543 10.146 10.146v10.927c0 5.603-4.543 10.146-10.146 10.146h-10.927c-5.604 0-10.146-4.543-10.146-10.146v-10.927c0-5.604 4.543-10.146 10.146-10.146z"></path>
<path stroke-linejoin="miter" stroke-linecap="butt" stroke-miterlimit="4" stroke-width="0.6076" d="M18.721 10.267c-0.804-0.475-1.74-0.748-2.741-0.748-0.994 0-1.925 0.269-2.725 0.738"></path>
<path stroke-linejoin="miter" stroke-linecap="butt" stroke-miterlimit="4" stroke-width="0.6076" d="M20.725 8.408c-1.333-0.977-2.978-1.553-4.756-1.553-1.762 0-3.392 0.565-4.718 1.525"></path>
<path stroke-linejoin="miter" stroke-linecap="butt" stroke-miterlimit="4" stroke-width="0.6076" d="M18.035 24.754h-4.071c-2.115 0-3.829-1.714-3.829-3.829v-4.071c0-2.115 1.714-3.829 3.829-3.829h4.071c2.115 0 3.829 1.715 3.829 3.829v4.071c0 2.115-1.714 3.829-3.829 3.829z"></path>
<path stroke-linejoin="miter" stroke-linecap="butt" stroke-miterlimit="4" stroke-width="0.6076" d="M14.287 18.89c0-0.946 0.767-1.714 1.713-1.714s1.713 0.767 1.713 1.714c0 0.946-0.767 1.714-1.713 1.714s-1.713-0.767-1.713-1.714z"></path>
</symbol>
<symbol id="icon-threedots" viewBox="0 0 17 32">
<path stroke-linejoin="miter" stroke-linecap="butt" stroke-miterlimit="4" stroke-width="0.3232" d="M7.603 14.869h2.263v2.263h-2.263v-2.263z"></path>
<path stroke-linejoin="miter" stroke-linecap="butt" stroke-miterlimit="4" stroke-width="0.3232" d="M1.785 14.869h2.263v2.263h-2.263v-2.263z"></path>
<path stroke-linejoin="miter" stroke-linecap="butt" stroke-miterlimit="4" stroke-width="0.3232" d="M13.421 14.869h2.263v2.263h-2.263v-2.263z"></path>
</symbol>
<symbol id="icon-twitter" viewBox="0 0 32 32">
<path d="M32 5.824c-1.176 0.535-2.442 0.898-3.77 1.059 1.356-0.832 2.397-2.151 2.887-3.723-1.27 0.77-2.673 1.331-4.172 1.631-1.195-1.308-2.902-2.124-4.791-2.124-3.623 0-6.563 3.014-6.563 6.732 0 0.528 0.056 1.040 0.169 1.533-5.456-0.281-10.293-2.958-13.533-7.036-0.565 0.998-0.888 2.155-0.888 3.388 0 2.334 1.159 4.395 2.921 5.603-1.074-0.033-2.089-0.339-2.975-0.84v0.083c0 3.263 2.263 5.984 5.269 6.601-0.55 0.158-1.131 0.237-1.73 0.237-0.423 0-0.836-0.041-1.236-0.119 0.836 2.674 3.259 4.621 6.133 4.673-2.246 1.807-5.079 2.883-8.154 2.883-0.53 0-1.054-0.031-1.566-0.092 2.906 1.907 6.358 3.022 10.064 3.022 12.077 0 18.679-10.256 18.679-19.153 0-0.293-0.006-0.586-0.017-0.873 1.283-0.95 2.397-2.134 3.274-3.484z"></path>
</symbol>
</defs>
</svg>
