<svg aria-hidden="true" style="position:absolute;width:0;height:0;overflow:hidden" xmlns="http://www.w3.org/2000/svg">
    <defs>
        <symbol id="amazon" viewBox="0 0 105 32">
            <path fill="#f90"
                d="M64.653 24.561c-6.055 4.469-14.833 6.845-22.392 6.845-10.595 0-20.134-3.916-27.353-10.434-.567-.513-.061-1.211.619-.815 7.788 4.533 17.421 7.262 27.37 7.262 6.711 0 14.087-1.393 20.876-4.271 1.024-.435 1.883.674.88 1.414z" />
            <path fill="#f90"
                d="M67.172 21.684c-.775-.991-5.119-.469-7.071-.237-.59.071-.683-.445-.15-.819 3.466-2.435 9.146-1.731 9.806-.917.664.823-.174 6.516-3.423 9.233-.5.417-.976.195-.753-.356.73-1.827 2.366-5.912 1.591-6.904z" />
            <path fill="#221f1f"
                d="M60.239 3.431V1.065a.583.583 0 0 1 .6-.599L71.441.465c.338 0 .611.247.611.597v2.029c-.004.341-.29.785-.799 1.49l-5.491 7.841c2.038-.047 4.195.259 6.047 1.3.417.233.529.581.562.922v2.525c0 .346-.38.75-.781.541-3.263-1.71-7.593-1.897-11.201.02-.369.197-.754-.201-.754-.548v-2.399c0-.385.006-1.042.394-1.626l6.363-9.128-5.541-.001c-.338 0-.611-.242-.612-.595zM81.179.161c4.787 0 7.375 4.11 7.375 9.336 0 5.05-2.858 9.057-7.375 9.057-4.696 0-7.257-4.111-7.257-9.232 0-5.155 2.59-9.161 7.257-9.161zm.029 3.379c-2.379 0-2.529 3.239-2.529 5.26 0 2.02-.029 6.338 2.499 6.338 2.499 0 2.619-3.483 2.619-5.607 0-1.394-.06-3.066-.482-4.39-.361-1.149-1.084-1.601-2.108-1.601zM7.756 0C4.685 0 1.261 1.146.542 4.938a.567.567 0 0 0 .483.674l3.087.335c.279.031.542-.269.608-.627.229-1.252 1.386-1.903 2.583-1.898.664 0 1.384.266 1.809.837.548.737.392 2.758.392 2.758l.001 2.584-.002 1.146c0 2.144-.688 3.118-.688 3.118s-.771 1.307-2.1 1.307c0 0-2.005.249-2.005-2.604 0-2.294 2.558-2.967 4.795-2.967l-.001-2.584c-1.446.161-4.863.591-6.064 1.119-2.021.871-3.439 2.653-3.439 5.271 0 3.35 2.112 5.028 4.828 5.028 2.292 0 3.548-.543 5.318-2.347 0 0 .746 1.297 1.848 2.15.159.123.55.117.763-.074 0 0 1.82-1.584 2.479-2.136.263-.215.217-.563.011-.858-.589-.814-1.216-1.476-1.216-2.989V7.156c0-2.131.15-4.085-1.419-5.551C11.375.417 9.323-.001 7.755-.001zM50.039 0c-3.071 0-6.495 1.146-7.214 4.938a.567.567 0 0 0 .483.674l3.087.335c.279.031.542-.269.608-.627.229-1.252 1.386-1.903 2.583-1.898.664 0 1.384.266 1.809.837.548.737.392 2.758.392 2.758l.001 2.584-.002 1.146c0 2.144-.688 3.118-.688 3.118s-.771 1.307-2.1 1.307c0 0-2.005.249-2.005-2.604 0-2.294 2.558-2.967 4.795-2.967l-.001-2.584c-1.446.161-4.863.591-6.064 1.119-2.021.871-3.439 2.653-3.439 5.271 0 3.35 2.112 5.028 4.828 5.028 2.292 0 3.548-.543 5.318-2.347 0 0 .746 1.297 1.849 2.15.159.123.55.117.763-.074 0 0 1.82-1.584 2.479-2.136.263-.215.217-.563.011-.858-.589-.814-1.216-1.476-1.216-2.989V7.156c0-2.131.15-4.085-1.419-5.551-1.238-1.188-3.29-1.606-4.858-1.606zM22.189 8.835c0-1.917-.09-4.564 2.227-4.564 2.288 0 1.987 2.717 1.987 4.564l.004 8.776c0 .317.256.575.579.594h3.222a.608.608 0 0 0 .622-.595V8.836c0-.941-.029-2.334.301-3.17s1.144-1.36 1.927-1.36c.932 0 1.656.314 1.897 1.428.15.663.09 2.404.09 3.101l.001 8.776c0 .317.254.575.579.594h3.221a.607.607 0 0 0 .622-.595l.004-10.446c0-1.778.21-3.798-.814-5.191C37.755.719 36.281.162 34.925.162c-1.897 0-3.672.976-4.456 3.066-.903-2.09-2.168-3.066-4.185-3.066-1.987 0-3.462.976-4.245 3.066h-.061V1.114a.603.603 0 0 0-.603-.603h-3.01a.602.602 0 0 0-.602.603v16.49c0 .332.268.602.602.602h3.221c.333 0 .603-.27.603-.602zM95.392 17.602c0 .333-.27.603-.603.603h-3.221a.603.603 0 0 1-.602-.603V1.112c0-.332.27-.603.602-.603h2.978c.35 0 .603.281.603.472v2.524h.062c.903-2.264 2.168-3.344 4.395-3.344 1.446 0 2.861.523 3.764 1.951.845 1.323.845 3.553.845 5.155v10.416a.614.614 0 0 1-.619.522h-3.233a.608.608 0 0 1-.574-.522l.005-10.003c0-3.347-1.282-3.445-2.021-3.445-.861 0-1.554.673-1.857 1.3-.45 1.011-.523 2.044-.523 3.16z" />
        </symbol>
        <symbol id="icon-advancednetworkprotection" viewBox="0 0 32 32">
            <path
                d="M19.623 12.588h-.002a.405.405 0 0 0-.285.117l-4.529 4.518-2.041-2.037a.403.403 0 0 0-.574.002.408.408 0 0 0 .002.572l2.328 2.322a.403.403 0 0 0 .572 0l4.814-4.803a.406.406 0 0 0 0-.574.405.405 0 0 0-.285-.117z" />
            <path
                d="M16.049 6.201c-3.243 0-6.277.519-8.896 1.422A1.424 1.424 0 0 0 6.2 9.002c.27 12.23 7.176 16.967 9.16 18.063h.002l.002.002c.21.117.446.178.686.178.171 0 .331-.067.49-.127.065-.025.138-.019.199-.053 1.984-1.096 8.891-5.831 9.16-18.063a1.426 1.426 0 0 0-.951-1.379c-2.618-.903-5.653-1.422-8.896-1.422h-.002zm.689 20.863-.197.053a.397.397 0 0 0 .197-.052l-.002.001.002-.002zm-.689-20.052h.002c3.157 0 6.106.506 8.633 1.377a.624.624 0 0 1 .406.596c-.263 11.936-6.922 16.367-8.744 17.373l-.006.003.002-.001a.598.598 0 0 1-.586 0l-.002-.002c-1.821-1.005-8.48-5.436-8.744-17.373a.624.624 0 0 1 .406-.596c2.527-.871 5.477-1.377 8.633-1.377z" />
            <path
                d="M10.535-.016C4.712-.016-.016 4.713-.016 10.535v10.928c0 5.823 4.729 10.551 10.551 10.551h10.928c5.823 0 10.551-4.729 10.551-10.551V10.535c0-5.823-4.729-10.551-10.551-10.551zm0 .811h10.928a9.733 9.733 0 0 1 9.74 9.74v10.928a9.733 9.733 0 0 1-9.74 9.74H10.535a9.733 9.733 0 0 1-9.74-9.74V10.535a9.733 9.733 0 0 1 9.74-9.74z" />
        </symbol>
        <symbol id="icon-alwaysgettingbetter" viewBox="0 0 32 32">
            <path
                d="M10.535-.016C4.712-.016-.016 4.713-.016 10.535v10.928c0 5.823 4.729 10.551 10.551 10.551h10.928c5.823 0 10.551-4.729 10.551-10.551V10.535c0-5.823-4.729-10.551-10.551-10.551zm0 .811h10.928a9.733 9.733 0 0 1 9.74 9.74v10.928a9.733 9.733 0 0 1-9.74 9.74H10.535a9.733 9.733 0 0 1-9.74-9.74V10.535a9.733 9.733 0 0 1 9.74-9.74z" />
            <path
                d="M12.615 8.18c-2.249 0-4.047 1.967-4.047 4.348v1.934c0 .223.181.404.404.404h.001a.405.405 0 0 0 .405-.404v-1.934c0-1.976 1.461-3.537 3.236-3.537h6.672c1.775 0 3.238 1.561 3.238 3.537v1.934c0 .223.181.404.404.404h.001a.405.405 0 0 0 .405-.404v-1.934c0-2.38-1.8-4.348-4.049-4.348zM8.973 15.732a.405.405 0 0 0-.404.405v3.61c0 2.379 1.798 4.35 4.047 4.35h6.672c2.249 0 4.049-1.969 4.049-4.35v-3.61a.405.405 0 0 0-.405-.405h-.001a.405.405 0 0 0-.404.405v3.61c0 1.976-1.463 3.539-3.238 3.539h-6.672c-1.775 0-3.236-1.564-3.236-3.539v-3.61a.405.405 0 0 0-.405-.405h-.001z" />
            <path
                d="M7.225 12.145h-.016a.405.405 0 0 0-.299.681l1.766 1.91a.407.407 0 0 0 .594 0l1.766-1.91a.403.403 0 0 0-.021-.572.404.404 0 0 0-.572.023l-1.469 1.588-1.467-1.588a.405.405 0 0 0-.28-.131h-.001zM22.93 15.732a.405.405 0 0 0-.297.131l-1.766 1.91a.404.404 0 0 0 .023.572.404.404 0 0 0 .572-.023l1.467-1.588 1.469 1.588a.405.405 0 0 0 .573.024.404.404 0 0 0 .022-.573l-1.766-1.91a.409.409 0 0 0-.297-.131z" />
        </symbol>
        <symbol id="icon-dayguarantee" viewBox="0 0 32 32">
            <path
                d="M15.531-.029c-7.582 0-13.826 5.203-13.826 11.732s6.244 11.732 13.826 11.732c7.585 0 13.83-5.203 13.83-11.732S23.115-.029 15.531-.029zm0 1.111c7.078 0 12.719 4.805 12.719 10.621s-5.64 10.621-12.719 10.621c-7.076 0-12.715-4.805-12.715-10.621S8.455 1.082 15.531 1.082zM4.293 21.871a.557.557 0 0 0-.761.185l-.001.002L.15 27.654a.556.556 0 0 0 .626.822l-.004.001 5.686-1.563 1.844 4.693a.557.557 0 0 0 .991.087l.001-.002 3.381-5.598a.557.557 0 0 0-.185-.761l-.002-.001a.554.554 0 0 0-.762.185l-.001.002-2.799 4.635-1.615-4.111a.557.557 0 0 0-.668-.331l.004-.001-4.824 1.326 2.662-4.404a.555.555 0 0 0-.187-.76l-.002-.001zM26.773 21.871a.557.557 0 0 0-.188.764l-.001-.002 2.66 4.404-4.822-1.326a.558.558 0 0 0-.663.328l-.001.004-1.615 4.111-2.801-4.635a.556.556 0 0 0-.766-.186l.002-.001a.557.557 0 0 0-.186.764l-.001-.002 3.383 5.598a.556.556 0 0 0 .991-.08l.001-.004 1.844-4.693 5.684 1.563a.556.556 0 0 0 .622-.825l.001.002-3.381-5.596a.557.557 0 0 0-.764-.186l.002-.001z" />
        </symbol>
        <symbol id="icon-facebook" viewBox="0 0 32 32">
            <path
                d="M17.093 31.999H1.766c-.975 0-1.766-.79-1.766-1.766V1.766C0 .791.79 0 1.766 0h28.468C31.209 0 32 .79 32 1.766v28.467c0 .975-.79 1.766-1.766 1.766h-8.155V19.607h4.16l.623-4.83h-4.783v-3.083c0-1.398.389-2.351 2.393-2.351l2.557-.001V5.023c-.442-.058-1.961-.19-3.727-.19-3.687 0-6.212 2.251-6.212 6.384v3.562h-4.17v4.83h4.17v12.392z" />
        </symbol>
        <symbol id="icon-fastandeasysetup" viewBox="0 0 32 32">
            <path
                d="M14.914 7.637a1.564 1.564 0 0 0-1.499 1.551l.01 12.35-1.668-1.459a2.889 2.889 0 0 0-3.723-.072.404.404 0 0 0-.058.571l-.001-.001s1.037 1.268 2.443 2.709 3.165 3.062 4.736 3.807a.404.404 0 0 0 .538-.189l.001-.002a.407.407 0 0 0-.191-.54l-.002-.001c-1.363-.646-3.123-2.227-4.502-3.641-1.161-1.19-1.759-1.926-2.016-2.234.294-.143.579-.319.91-.313.489.009.96.191 1.328.514v.002l2.342 2.049a.405.405 0 0 0 .672-.305l-.01-13.244c.001-.192.075-.375.209-.514a.753.753 0 0 1 1.037-.041.743.743 0 0 1 .248.498l.51 6.594c.016.21.191.375.404.375h3.67a2.956 2.956 0 0 1 2.959 2.963v.001c0 .223.181.405.404.405a.405.405 0 0 0 .404-.405v-.001a3.776 3.776 0 0 0-3.768-3.773h-3.295l-.48-6.221v-.002a1.56 1.56 0 0 0-1.615-1.43z" />
            <path
                d="M13.314 5.154A2.62 2.62 0 0 0 10.7 7.772v3.598c0 .223.181.404.404.404h.001a.405.405 0 0 0 .405-.404V7.772a1.803 1.803 0 0 1 1.802-1.806h3.314a1.795 1.795 0 0 1 1.275.53h.002a1.803 1.803 0 0 1 .528 1.277v3.598c0 .223.182.404.405.404h.001a.404.404 0 0 0 .404-.404V7.773a2.623 2.623 0 0 0-1.613-2.418 2.63 2.63 0 0 0-1.002-.199z" />
            <path
                d="M10.535-.016C4.712-.016-.016 4.713-.016 10.535v10.928c0 5.823 4.729 10.551 10.551 10.551h10.928c5.823 0 10.551-4.729 10.551-10.551V10.535c0-5.823-4.729-10.551-10.551-10.551zm0 .811h10.928a9.733 9.733 0 0 1 9.74 9.74v10.928a9.733 9.733 0 0 1-9.74 9.74H10.535a9.733 9.733 0 0 1-9.74-9.74V10.535a9.733 9.733 0 0 1 9.74-9.74z" />
        </symbol>
        <symbol id="icon-freeshipping" viewBox="0 0 32 32">
            <path
                d="M1.228.215h-.001A.556.556 0 0 0 .671.77v21.539c0 .306.249.555.556.555h.001a.556.556 0 0 0 .555-.555V1.327h21.719c.276 0 .668.32.809 1.002l1.793 10.773c.03.175.139.32.288.399l.003.001 3.244 1.691c.263.215.508.726.508 1.309v5.807c0 .306.249.554.555.555h.001a.556.556 0 0 0 .556-.555v-5.807c0-.871-.307-1.696-.936-2.193a.563.563 0 0 0-.085-.055l-.003-.001-3.08-1.607-1.752-10.52-.005-.025.001.004c-.212-1.032-.922-1.889-1.896-1.889z" />
            <path
                d="M15.965 4.318a.556.556 0 0 0-.555.555v17.436a.557.557 0 0 0 .555.555h.001a.556.556 0 0 0 .556-.555V4.873a.556.556 0 0 0-.556-.555h-.001zM27.594 25.854a.556.556 0 0 0-.555.556v.001c0 .306.249.554.555.555h3.81a.556.556 0 0 0 .556-.555v-.001a.556.556 0 0 0-.556-.556h-.001zM11.352 25.854a.556.556 0 0 0-.555.556v.001a.557.557 0 0 0 .555.555h9.227a.556.556 0 0 0 .555-.555v-.001a.556.556 0 0 0-.555-.556zM.525 25.854a.556.556 0 0 0-.555.556v.001a.557.557 0 0 0 .555.555h3.809a.556.556 0 0 0 .555-.555v-.001a.556.556 0 0 0-.555-.556z" />
            <path
                d="M7.846 20.727c-1.188 0-2.23.707-2.939 1.744s-1.125 2.421-1.125 3.939c0 1.519.415 2.903 1.125 3.939s1.752 1.744 2.939 1.744c1.188 0 2.228-.707 2.938-1.744s1.125-2.421 1.125-3.939c0-1.519-.416-2.903-1.125-3.939s-1.75-1.744-2.938-1.744zm0 1.111c.749 0 1.461.441 2.021 1.26s.93 1.999.93 3.313c0 1.313-.369 2.493-.93 3.313s-1.273 1.26-2.021 1.26c-.749 0-1.463-.441-2.023-1.26s-.932-1.999-.932-3.313c0-1.313.371-2.493.932-3.313s1.274-1.26 2.023-1.26z" />
            <path
                d="M9.16 26.41c0 1.061-.589 1.923-1.316 1.923s-1.316-.862-1.316-1.923.589-1.923 1.316-1.923 1.316.861 1.316 1.923zM24.088 20.727c-1.188 0-2.23.708-2.939 1.744s-1.127 2.42-1.127 3.939c0 1.519.416 2.903 1.125 3.939s1.753 1.744 2.941 1.744 2.228-.707 2.938-1.744 1.125-2.421 1.125-3.939c0-1.519-.416-2.903-1.125-3.939s-1.75-1.744-2.938-1.744zm0 1.111c.749 0 1.461.441 2.021 1.26s.93 1.999.93 3.313c0 1.313-.369 2.493-.93 3.313s-1.273 1.26-2.021 1.26c-.75 0-1.463-.441-2.023-1.26s-.932-1.999-.932-3.313.371-2.493.932-3.313 1.274-1.26 2.023-1.26z" />
            <path
                d="M25.402 26.41c0 1.061-.59 1.923-1.316 1.923s-1.316-.862-1.316-1.923.589-1.923 1.316-1.923 1.316.861 1.316 1.923zM19.84 4.314h-.001a.556.556 0 0 0-.556.555V13.009c0 .307.249.556.556.556H26.652a.556.556 0 0 0 .556-.556v-.001a.556.556 0 0 0-.556-.555H20.395V5.426h4.902a.556.556 0 0 0 .555-.556v-.001a.556.556 0 0 0-.555-.555z" />
        </symbol>
        <symbol id="icon-freesupport" viewBox="0 0 32 32">
            <path
                d="M15.965-.029c-2.86 0-5.191 2.331-5.191 5.191s2.331 5.191 5.191 5.191 5.191-2.331 5.191-5.191-2.331-5.191-5.191-5.191zm0 1.111c2.26 0 4.08 1.82 4.08 4.08s-1.82 4.08-4.08 4.08-4.08-1.82-4.08-4.08 1.82-4.08 4.08-4.08zM.527 30.621H.526a.556.556 0 0 0-.556.556v.001a.557.557 0 0 0 .556.555h30.878a.556.556 0 0 0 .555-.555v-.001a.556.556 0 0 0-.555-.556zM10.037 20.434a2.107 2.107 0 0 0-2.098 2.1V28.371c0 .307.248.555.555.556h.001a.556.556 0 0 0 .556-.556V22.534c0-.553.433-.988.986-.988h11.855a.98.98 0 0 1 .988.988V28.371c0 .307.248.555.555.556h.001a.556.556 0 0 0 .556-.556V22.534c0-1.153-.947-2.1-2.1-2.1z" />
            <path
                d="M12.109 13.463a6.734 6.734 0 0 0-6.26 4.256l-2.709 6.85a4.046 4.046 0 0 0 .705 4.133.554.554 0 0 0 .784.056l-.001.001a.554.554 0 0 0 .056-.784l.001.001a2.932 2.932 0 0 1-.512-2.998l2.709-6.85a5.617 5.617 0 0 1 5.227-3.553h7.711a5.617 5.617 0 0 1 5.227 3.553l2.707 6.85a2.928 2.928 0 0 1-.51 2.998.553.553 0 0 0 .056.782l.001.001a.553.553 0 0 0 .782-.056l.001-.001a4.043 4.043 0 0 0 .703-4.133l-2.707-6.85a6.736 6.736 0 0 0-6.26-4.256z" />
        </symbol>
        <symbol id="icon-instagram" viewBox="0 0 32 32">
            <path
                d="M16 0c-4.345 0-4.89.018-6.597.096C7.7.174 6.537.444 5.519.84c-1.052.409-1.944.956-2.834 1.845S1.248 4.467.84 5.519C.444 6.537.174 7.7.096 9.403.018 11.11 0 11.654 0 16s.018 4.89.096 6.597c.078 1.703.348 2.866.744 3.884.409 1.052.956 1.944 1.845 2.834s1.782 1.437 2.834 1.846c1.018.395 2.181.666 3.884.744 1.707.078 2.251.096 6.597.096s4.89-.018 6.597-.096c1.703-.078 2.866-.348 3.884-.744 1.052-.409 1.944-.956 2.834-1.846s1.437-1.782 1.846-2.834c.395-1.018.666-2.181.744-3.884.078-1.707.096-2.252.096-6.597s-.018-4.89-.096-6.597c-.078-1.703-.348-2.866-.744-3.884-.409-1.052-.956-1.944-1.846-2.834S27.533 1.248 26.481.84C25.463.444 24.3.174 22.597.096 20.89.018 20.345 0 16 0zm0 2.883c4.272 0 4.778.016 6.465.093 1.56.071 2.407.332 2.971.551.747.29 1.28.637 1.84 1.197s.907 1.093 1.197 1.84c.219.564.48 1.411.551 2.971.077 1.687.093 2.193.093 6.465s-.016 4.778-.093 6.465c-.071 1.56-.332 2.407-.551 2.971-.29.747-.637 1.28-1.197 1.84s-1.093.907-1.84 1.197c-.564.219-1.411.48-2.971.551-1.687.077-2.193.093-6.465.093s-4.778-.016-6.465-.093c-1.56-.071-2.407-.332-2.971-.551-.747-.29-1.28-.637-1.84-1.197s-.907-1.093-1.197-1.84c-.219-.564-.48-1.411-.551-2.971-.077-1.687-.093-2.193-.093-6.465s.016-4.778.093-6.465c.071-1.56.332-2.407.551-2.971.29-.747.637-1.28 1.197-1.84s1.093-.907 1.84-1.197c.564-.219 1.411-.48 2.971-.551 1.687-.077 2.193-.093 6.465-.093zM7.784 16a8.216 8.216 0 1 1 16.432 0 8.216 8.216 0 0 1-16.432 0zM16 21.333a5.333 5.333 0 1 1 0-10.667 5.333 5.333 0 0 1 0 10.667zm8.541-11.954a1.92 1.92 0 1 0-.001-3.841 1.92 1.92 0 0 0 .001 3.841z" />
        </symbol>
        <symbol id="icon-lighting1" viewBox="0 0 32 32">
            <path
                d="M10.535.441C4.823.441.187 5.021.187 10.668v10.795c0 5.647 4.636 10.227 10.348 10.227h10.928c5.712 0 10.35-4.58 10.35-10.227V10.668c0-5.647-4.638-10.227-10.35-10.227zm0 .405h10.928c5.495 0 9.943 4.397 9.943 9.822v10.795c0 5.425-4.447 9.82-9.943 9.82H10.535c-5.495 0-9.943-4.395-9.943-9.82V10.668c0-5.425 4.447-9.822 9.943-9.822z" />
            <path
                d="M12.594 20.938a.318.318 0 0 0-.318.319v.001c0 .176.143.318.318.318h6.492a.318.318 0 0 0 .318-.318v-.001a.318.318 0 0 0-.318-.319zM13.521 22.557a.318.318 0 0 0-.318.319v.001c0 .176.143.318.318.318h4.639a.318.318 0 0 0 .318-.318v-.001a.318.318 0 0 0-.318-.319zM14.449 24.176a.318.318 0 0 0-.318.318v.001c0 .176.142.319.318.319h2.783a.318.318 0 0 0 .318-.319v-.001a.318.318 0 0 0-.318-.318zM15.842 7.264c-3.297 0-6.014 2.375-6.014 5.348 0 .733.168 1.433.467 2.066l.006-.01v.022-.001l.008.018c.01.02.02.035.027.047l1.371 2.537c.392.723.598 1.529.598 2.348a.318.318 0 0 0 .636 0c0-.925-.232-1.837-.674-2.652h.002l-1.373-2.535-.008-.013.001.001c-.009-.015-.011-.022-.008-.016a.099.099 0 0 0-.009-.015l.001.001v-.006a4.186 4.186 0 0 1-.406-1.793c0-2.583 2.382-4.711 5.375-4.711s5.375 2.128 5.375 4.711c0 .619-.139 1.231-.406 1.793v.004a.06.06 0 0 0-.007.014l-.001.002c.005-.01-.002-.001-.016.025l-1.373 2.537a5.56 5.56 0 0 0-.674 2.65c0 .176.143.318.319.318h.001a.318.318 0 0 0 .318-.318c0-.818.204-1.623.596-2.346l1.373-2.537.002-.002.023-.045.008-.014.002-.004.002-.012v-.002l.002.002a4.815 4.815 0 0 0 .467-2.066c0-2.973-2.714-5.348-6.012-5.348z" />
        </symbol>
        <symbol id="icon-appliances1" viewBox="0 0 32 32">
            <path
                d="M10.535.441C4.823.441.187 5.021.187 10.668v10.795c0 5.647 4.636 10.227 10.348 10.227h10.928c5.712 0 10.35-4.58 10.35-10.227V10.668c0-5.647-4.638-10.227-10.35-10.227zm0 .405h10.928c5.495 0 9.943 4.397 9.943 9.822v10.795c0 5.425-4.447 9.82-9.943 9.82H10.535c-5.495 0-9.943-4.395-9.943-9.82V10.668c0-5.425 4.447-9.822 9.943-9.822z" />
            <path
                d="M16.02 7.266a8.948 8.948 0 0 0-6.309 2.58c-3.484 3.441-3.483 9.035 0 12.477s9.135 3.441 12.617 0a8.755 8.755 0 0 0 0-12.477 8.946 8.946 0 0 0-6.309-2.58zm0 .634c2.121 0 4.241.801 5.859 2.4a8.102 8.102 0 0 1 0 11.566c-3.237 3.199-8.481 3.199-11.719 0s-3.24-8.368-.002-11.566h.002a8.315 8.315 0 0 1 5.859-2.4z" />
            <path
                d="M16.016 13.686a4.029 4.029 0 0 0-2.826 1.139 3.963 3.963 0 0 0-1.195 2.808c-.002.524.101 1.042.303 1.525s.499.921.873 1.291c.374.369.818.663 1.307.861s1.011.301 1.539.299a4.053 4.053 0 0 0 2.834-1.178h.004v-.002a3.934 3.934 0 0 0-.02-5.586 4.034 4.034 0 0 0-2.818-1.158zm-.004.636c.89.004 1.744.356 2.373.977a3.294 3.294 0 0 1 .017 4.68l-.002.002a3.35 3.35 0 0 1-1.092.73 3.402 3.402 0 0 1-3.69-.715 3.333 3.333 0 0 1-.732-1.084 3.277 3.277 0 0 1 .01-2.552c.171-.404.422-.77.738-1.078a3.389 3.389 0 0 1 2.377-.959z" />
            <path
                d="M16.02 16.096a.318.318 0 0 0-.318.318v2.43c0 .176.143.318.318.318h.001a.318.318 0 0 0 .319-.318v-2.43a.318.318 0 0 0-.319-.318h-.001zM16.018 9.236a1.559 1.559 0 0 0-1.09.438l-.004.004a1.52 1.52 0 0 0 .01 2.162 1.559 1.559 0 0 0 2.178.009l.004-.004a1.524 1.524 0 0 0-.01-2.162 1.551 1.551 0 0 0-1.088-.447zm-.002.637a.915.915 0 0 1 .641.264v.002c.169.167.265.393.266.627s-.091.46-.258.629a.918.918 0 0 1-1.282-.008c-.169-.167-.265-.393-.266-.627s.093-.458.258-.627c.17-.165.4-.261.641-.26z" />
        </symbol>
        <symbol id="icon-security1" viewBox="0 0 32 32">
            <path
                d="M10.537.086C4.77.086.088 4.767.088 10.535v10.928c0 5.767 4.681 10.449 10.449 10.449h10.928c5.767 0 10.449-4.682 10.449-10.449V10.535c0-5.767-4.681-10.449-10.449-10.449zm0 .607h10.928a9.837 9.837 0 0 1 9.842 9.842v10.928a9.838 9.838 0 0 1-9.842 9.842H10.537a9.837 9.837 0 0 1-9.842-9.842V10.535A9.837 9.837 0 0 1 10.537.693z" />
            <path
                d="M15.98 9.215a5.681 5.681 0 0 0-2.879.779l.307.525a5.064 5.064 0 0 1 2.572-.697c.946 0 1.827.259 2.586.707l.309-.523a5.669 5.669 0 0 0-2.895-.791zM15.969 6.551a8.323 8.323 0 0 0-4.896 1.584l.357.492a7.708 7.708 0 0 1 4.539-1.469c1.712 0 3.293.554 4.576 1.494l.359-.49a8.323 8.323 0 0 0-4.936-1.611zM13.965 12.721a4.138 4.138 0 0 0-4.133 4.133v4.072a4.138 4.138 0 0 0 4.133 4.133h4.07a4.138 4.138 0 0 0 4.133-4.133v-4.072a4.138 4.138 0 0 0-4.133-4.133zm0 .607h4.07a3.52 3.52 0 0 1 3.525 3.525v4.072a3.52 3.52 0 0 1-3.525 3.525h-4.07a3.52 3.52 0 0 1-3.525-3.525v-4.072a3.52 3.52 0 0 1 3.525-3.525z" />
            <path
                d="M16 16.873c-1.11 0-2.018.907-2.018 2.018s.907 2.018 2.018 2.018c1.11 0 2.018-.907 2.018-2.018s-.907-2.018-2.018-2.018zm0 .607c.782 0 1.41.627 1.41 1.41 0 .782-.629 1.41-1.41 1.41s-1.41-.627-1.41-1.41c0-.782.629-1.41 1.41-1.41z" />
        </symbol>
        <symbol id="icon-lighting" viewBox="0 0 32 32">
            <path
                d="M12.594 20.938a.318.318 0 0 0-.318.319v.001c0 .176.143.318.318.318h6.492a.318.318 0 0 0 .318-.318v-.001a.318.318 0 0 0-.318-.319zM13.521 22.557a.318.318 0 0 0-.318.319v.001c0 .176.143.318.318.318h4.639a.318.318 0 0 0 .318-.318v-.001a.318.318 0 0 0-.318-.319zM14.449 24.176a.318.318 0 0 0-.318.318v.001c0 .176.142.319.318.319h2.783a.318.318 0 0 0 .318-.319v-.001a.318.318 0 0 0-.318-.318zM15.842 7.264c-3.297 0-6.014 2.375-6.014 5.348 0 .733.168 1.433.467 2.066l.006-.01v.022-.001l.008.018c.01.02.02.035.027.047l1.371 2.537c.392.723.598 1.529.598 2.348a.318.318 0 0 0 .636 0c0-.925-.232-1.837-.674-2.652h.002l-1.373-2.535-.008-.013.001.001c-.009-.015-.011-.022-.008-.016a.099.099 0 0 0-.009-.015l.001.001v-.006a4.186 4.186 0 0 1-.406-1.793c0-2.583 2.382-4.711 5.375-4.711s5.375 2.128 5.375 4.711c0 .619-.139 1.231-.406 1.793v.004a.06.06 0 0 0-.007.014l-.001.002c.005-.01-.002-.001-.016.025l-1.373 2.537a5.56 5.56 0 0 0-.674 2.65c0 .176.143.318.319.318h.001a.318.318 0 0 0 .318-.318c0-.818.204-1.623.596-2.346l1.373-2.537.002-.002.023-.045.008-.014.002-.004.002-.012v-.002l.002.002a4.815 4.815 0 0 0 .467-2.066c0-2.973-2.714-5.348-6.012-5.348z" />
        </symbol>
        <symbol id="icon-appliances" viewBox="0 0 32 32">
            <path
                d="M16.02 7.266a8.948 8.948 0 0 0-6.309 2.58c-3.484 3.441-3.483 9.035 0 12.477s9.135 3.441 12.617 0a8.755 8.755 0 0 0 0-12.477 8.946 8.946 0 0 0-6.309-2.58zm0 .634c2.121 0 4.241.801 5.859 2.4a8.102 8.102 0 0 1 0 11.566c-3.237 3.199-8.481 3.199-11.719 0s-3.24-8.368-.002-11.566h.002a8.315 8.315 0 0 1 5.859-2.4z" />
            <path
                d="M16.016 13.686a4.029 4.029 0 0 0-2.826 1.139 3.963 3.963 0 0 0-1.195 2.808c-.002.524.101 1.042.303 1.525s.499.921.873 1.291c.374.369.818.663 1.307.861s1.011.301 1.539.299a4.053 4.053 0 0 0 2.834-1.178h.004v-.002a3.934 3.934 0 0 0-.02-5.586 4.034 4.034 0 0 0-2.818-1.158zm-.004.636c.89.004 1.744.356 2.373.977a3.294 3.294 0 0 1 .017 4.68l-.002.002a3.35 3.35 0 0 1-1.092.73 3.402 3.402 0 0 1-3.69-.715 3.333 3.333 0 0 1-.732-1.084 3.277 3.277 0 0 1 .01-2.552c.171-.404.422-.77.738-1.078a3.389 3.389 0 0 1 2.377-.959z" />
            <path
                d="M16.02 16.096a.318.318 0 0 0-.318.318v2.43c0 .176.143.318.318.318h.001a.318.318 0 0 0 .319-.318v-2.43a.318.318 0 0 0-.319-.318h-.001zM16.018 9.236a1.559 1.559 0 0 0-1.09.438l-.004.004a1.52 1.52 0 0 0 .01 2.162 1.559 1.559 0 0 0 2.178.009l.004-.004a1.524 1.524 0 0 0-.01-2.162 1.551 1.551 0 0 0-1.088-.447zm-.002.637a.915.915 0 0 1 .641.264v.002c.169.167.265.393.266.627s-.091.46-.258.629a.918.918 0 0 1-1.282-.008c-.169-.167-.265-.393-.266-.627s.093-.458.258-.627c.17-.165.4-.261.641-.26z" />
        </symbol>
        <symbol id="icon-security" viewBox="0 0 32 32">
            <path
                d="M15.98 9.215a5.681 5.681 0 0 0-2.879.779l.307.525a5.064 5.064 0 0 1 2.572-.697c.946 0 1.827.259 2.586.707l.309-.523a5.669 5.669 0 0 0-2.895-.791zM15.969 6.551a8.323 8.323 0 0 0-4.896 1.584l.357.492a7.708 7.708 0 0 1 4.539-1.469c1.712 0 3.293.554 4.576 1.494l.359-.49a8.323 8.323 0 0 0-4.936-1.611zM13.965 12.721a4.138 4.138 0 0 0-4.133 4.133v4.072a4.138 4.138 0 0 0 4.133 4.133h4.07a4.138 4.138 0 0 0 4.133-4.133v-4.072a4.138 4.138 0 0 0-4.133-4.133zm0 .607h4.07a3.52 3.52 0 0 1 3.525 3.525v4.072a3.52 3.52 0 0 1-3.525 3.525h-4.07a3.52 3.52 0 0 1-3.525-3.525v-4.072a3.52 3.52 0 0 1 3.525-3.525z" />
            <path
                d="M16 16.873c-1.11 0-2.018.907-2.018 2.018s.907 2.018 2.018 2.018c1.11 0 2.018-.907 2.018-2.018s-.907-2.018-2.018-2.018zm0 .607c.782 0 1.41.627 1.41 1.41 0 .782-.629 1.41-1.41 1.41s-1.41-.627-1.41-1.41c0-.782.629-1.41 1.41-1.41z" />
        </symbol>
        <symbol id="icon-linkedin" viewBox="0 0 32 32">
            <path
                d="M3.767 8.311h-.045C1.464 8.311 0 6.8 0 4.885c0-1.952 1.507-3.431 3.81-3.431 2.301 0 3.716 1.475 3.761 3.426 0 1.915-1.46 3.431-3.804 3.431zM32 30.545h-7.072V20.318c0-2.677-1.106-4.504-3.539-4.504-1.861 0-2.895 1.233-3.377 2.422-.159.376-.156.881-.153 1.402l.001.213v10.694h-7.007s.09-18.116 0-19.762h7.007v3.101c.414-1.356 2.653-3.291 6.226-3.291 4.433 0 7.915 2.843 7.915 8.964v10.988zM7.044 10.783H.807v19.762h6.237V10.783z" />
        </symbol>
        <symbol id="icon-mainlogo" viewBox="0 0 64 32">
            <path
                d="M24.38 25.152a8.145 8.145 0 0 1-4.597 1.401 8.326 8.326 0 0 1-5.613-2.135c-.12-.106 0-.248.124-.168a11.198 11.198 0 0 0 9.903.615c.213-.088.386.137.182.287z" />
            <path
                d="M24.899 24.563c.156.204-.177 1.039-.328 1.415-.045.111.053.155.155.071.666-.562.834-1.72.701-1.888s-1.3-.309-2.014.186c-.107.08-.089.168.031.168.403-.048 1.295-.154 1.455.049zm-1.425-3.731c0 .016.004.032.01.047s.016.027.027.039.025.02.04.026.031.009.047.008h1.136l-1.313 1.879a.57.57 0 0 0-.08.332v.477c0 .071.08.151.155.111a2.507 2.507 0 0 1 2.298 0c.08.044.16-.04.16-.111v-.517a.22.22 0 0 0-.115-.186 2.397 2.397 0 0 0-1.242-.265l1.127-1.605c.106-.146.164-.234.164-.305v-.416c.001-.016-.002-.033-.008-.048a.122.122 0 0 0-.068-.068.113.113 0 0 0-.048-.008h-2.165c-.016-.001-.033.002-.048.008a.122.122 0 0 0-.068.068.113.113 0 0 0-.008.048v.486zm4.304.022c-.488 0-.519.663-.519 1.074s0 1.295.515 1.295.537-.712.537-1.145a3.03 3.03 0 0 0-.102-.884c-.02-.099-.077-.188-.159-.248s-.183-.088-.285-.079zm0-.694c.981 0 1.513.844 1.513 1.91s-.586 1.852-1.513 1.852c-.927 0-1.491-.84-1.491-1.888s.532-1.875 1.491-1.875zm-5.374 3.681.004.004.51-.442c.022-.023.035-.054.035-.086s-.013-.063-.035-.086a.883.883 0 0 1-.253-.61v-1.03c0-.433.031-.835-.288-1.136a1.52 1.52 0 0 0-.998-.327c-.63 0-1.336.234-1.482 1.008a.13.13 0 0 0 0 .048.119.119 0 0 0 .098.094l.634.049c.057.005.124-.053.124-.128a.511.511 0 0 1 .533-.389.49.49 0 0 1 .373.172c.072.179.1.374.08.566a4.563 4.563 0 0 0-1.247.226 1.122 1.122 0 0 0-.706 1.079.931.931 0 0 0 .591.966c.126.05.262.072.398.064a1.308 1.308 0 0 0 1.092-.482c.102.167.231.317.382.442.024.014.05.022.078.022s.055-.007.078-.022zm-.664-1.607c.024.241-.019.484-.124.703a.54.54 0 0 1-.444.301c-.257 0-.404-.195-.404-.482 0-.561.506-.663.985-.663v.141zm-8.013 1.607-.009.004.51-.442c.011-.011.02-.024.027-.039s.01-.031.01-.047a.124.124 0 0 0-.037-.086.913.913 0 0 1-.226-.61v-1.03c0-.433.031-.835-.293-1.136a1.497 1.497 0 0 0-.994-.327c-.63 0-1.336.234-1.482 1.008-.003.016-.004.032 0 .048s.01.031.019.044a.119.119 0 0 0 .079.05l.634.066c.057.005.124-.053.124-.128a.504.504 0 0 1 .533-.389.452.452 0 0 1 .368.173c.075.179.104.373.084.566a4.563 4.563 0 0 0-1.247.226 1.127 1.127 0 0 0-.705 1.079.924.924 0 0 0 .259.725.94.94 0 0 0 .717.287 1.328 1.328 0 0 0 1.091-.482c.102.167.231.317.382.442.024.014.05.022.078.022s.055-.007.078-.022zm-.666-1.607c.024.241-.019.484-.124.703a.538.538 0 0 1-.443.3c-.253 0-.399-.195-.399-.482 0-.561.506-.663.985-.663v.141h-.018zm2.6-.296c0-.393 0-.933.444-.933s.404.553.404.933v1.795c0 .031.012.061.034.083s.051.035.082.037h.661c.016.001.033-.002.048-.008s.029-.014.041-.025c.012-.011.022-.024.028-.039s.011-.031.011-.047v-1.795a2.125 2.125 0 0 1 .062-.65.447.447 0 0 1 .395-.279.346.346 0 0 1 .391.292c.016.212.016.425 0 .637v1.795a.124.124 0 0 0 .119.119h.661c.016.001.033-.002.048-.008s.029-.014.041-.025c.012-.011.022-.024.028-.039s.011-.031.011-.047v-2.14a1.754 1.754 0 0 0-.169-1.061.944.944 0 0 0-.763-.371.945.945 0 0 0-.919.628.887.887 0 0 0-.856-.628c-.197-.008-.391.049-.552.162s-.279.277-.336.465v-.442c-.001-.032-.015-.062-.038-.085s-.054-.035-.086-.035h-.572c-.016-.001-.032.002-.047.008s-.029.014-.04.026c-.012.011-.021.024-.027.039s-.01.031-.01.047v3.373c-.001.016.002.033.008.048a.122.122 0 0 0 .068.068.113.113 0 0 0 .048.008h.679c.016 0 .032-.003.047-.009s.028-.015.039-.027.02-.025.026-.04.008-.031.008-.047v-1.768l-.018-.013zm15.028 1.79c.001.016-.002.033-.008.048a.122.122 0 0 1-.068.068.113.113 0 0 1-.048.008h-.661c-.033 0-.065-.013-.088-.036s-.036-.055-.036-.088v-3.373c.001-.032.015-.062.038-.085s.054-.035.086-.035h.612a.12.12 0 0 1 .124.093v.517a.89.89 0 0 1 .887-.685.893.893 0 0 1 .772.402c.146.331.205.693.173 1.052v2.131c-.003.03-.018.058-.041.077s-.053.03-.083.029h-.639a.12.12 0 0 1-.116-.107v-2.047c0-.685-.266-.703-.417-.703a.45.45 0 0 0-.382.265 1.53 1.53 0 0 0-.107.645v1.821zM4.911 23.843l-.053-.345a1.756 1.756 0 0 1-.528.314 1.56 1.56 0 0 1-.572.115 1.047 1.047 0 0 1-.754-.27.93.93 0 0 1-.284-.716.95.95 0 0 1 .346-.774c.265-.202.594-.304.927-.287.283.004.565.043.839.115v-.442c.01-.091.001-.183-.028-.27s-.075-.167-.136-.235a.828.828 0 0 0-.555-.146 3.626 3.626 0 0 0-1.167.208v-.46c.185-.093.382-.159.586-.195.229-.048.463-.072.697-.071.331-.027.66.065.927.261a1.005 1.005 0 0 1 .302.795v2.401h-.546zm-.999-.411a1.57 1.57 0 0 0 .918-.34v-.672a2.897 2.897 0 0 0-.705-.088c-.497 0-.75.195-.75.575a.513.513 0 0 0 .142.389.553.553 0 0 0 .399.137h-.004zm4.806.411v-2.246a.77.77 0 0 0-.146-.517.555.555 0 0 0-.443-.163 1.833 1.833 0 0 0-1.029.336v2.591h-.661v-3.36h.55l.067.371c.38-.299.848-.463 1.331-.469a.982.982 0 0 1 .737.256 1.004 1.004 0 0 1 .252.752v2.467l-.657-.018zm28.054-.128c-.275.137-.58.205-.887.199a1.577 1.577 0 0 1-1.198-.442 2.203 2.203 0 0 1 0-2.596 1.587 1.587 0 0 1 1.211-.442c.29-.002.577.062.839.186v.469a2.464 2.464 0 0 0-.737-.137 1.013 1.013 0 0 0-.803.283c-.184.256-.271.57-.244.884v.084a1.33 1.33 0 0 0 .248.884.998.998 0 0 0 .785.283c.267-.005.532-.049.785-.133v.477zm2.067.225a1.521 1.521 0 0 1-1.184-.469 2.203 2.203 0 0 1 0-2.618 1.726 1.726 0 0 1 2.364 0 2.203 2.203 0 0 1 0 2.618 1.503 1.503 0 0 1-1.18.469zm0-.53c.621 0 .936-.416.936-1.251s-.315-1.242-.936-1.242-.936.411-.936 1.242.311 1.251.936 1.251zm6.722.433v-2.281a.78.78 0 0 0-.124-.486.48.48 0 0 0-.4-.159 1.866 1.866 0 0 0-.976.296.868.868 0 0 1 0 .102v2.529h-.657v-2.281a.81.81 0 0 0-.124-.486.48.48 0 0 0-.4-.159 1.815 1.815 0 0 0-.972.292v2.653h-.657v-3.36h.55l.067.34c.36-.269.793-.424 1.242-.442a.832.832 0 0 1 .843.455 2.23 2.23 0 0 1 1.331-.469.926.926 0 0 1 .705.256c.172.211.253.481.226.752v2.467l-.657-.018zm1.629 1.362v-4.722h.55l.062.345a1.657 1.657 0 0 1 1.123-.442 1.217 1.217 0 0 1 1.016.442c.266.368.397.816.373 1.269.028.475-.111.944-.395 1.326a1.275 1.275 0 0 1-1.043.491 1.474 1.474 0 0 1-1.029-.389v1.68zm1.548-4.289a1.496 1.496 0 0 0-.887.305v1.844c.253.2.565.312.887.318.612 0 .914-.411.914-1.229a1.553 1.553 0 0 0-.222-.933.784.784 0 0 0-.693-.305zm4.366 2.927-.053-.345a1.756 1.756 0 0 1-.528.314 1.583 1.583 0 0 1-.577.115c-.137.007-.275-.013-.404-.06s-.248-.118-.35-.21a.946.946 0 0 1-.279-.716.96.96 0 0 1 .342-.773c.267-.202.597-.304.932-.287.283.004.565.043.839.115v-.442a.663.663 0 0 0-.164-.504.828.828 0 0 0-.555-.146 3.65 3.65 0 0 0-1.171.208v-.46c.185-.093.382-.159.586-.195.229-.048.462-.071.697-.071.332-.026.662.066.932.261a1.001 1.001 0 0 1 .297.796v2.401h-.541zm-.998-.411a1.57 1.57 0 0 0 .918-.34v-.672a2.9 2.9 0 0 0-.706-.088c-.501 0-.75.195-.75.575a.53.53 0 0 0 .137.389.56.56 0 0 0 .399.137zm4.796.411v-2.246a.793.793 0 0 0-.142-.517.555.555 0 0 0-.443-.163 1.833 1.833 0 0 0-1.029.336v2.591h-.657v-3.36h.55l.067.371a2.187 2.187 0 0 1 1.331-.469.99.99 0 0 1 .741.256c.177.202.266.466.248.734v2.467zm4.357-3.36-1.535 3.948c-.081.25-.225.475-.417.654a.94.94 0 0 1-.617.199c-.176.001-.35-.03-.515-.093v-.469c.123.031.25.046.377.044a.572.572 0 0 0 .39-.124c.12-.124.207-.276.253-.442l.129-.336-1.358-3.391h.705l.972 2.75.936-2.75h.679v.009zM15.91 6.906H4.636v-.062c.04-.395.132-.783.275-1.154a6.194 6.194 0 0 1 2.693-3.307 5.338 5.338 0 0 1 2.804-.685 5.687 5.687 0 0 1 2.152.411 5.49 5.49 0 0 1 1.752 1.114 5.311 5.311 0 0 1 1.167 1.627 4.64 4.64 0 0 1 .444 1.99zM10.51 0a7.755 7.755 0 0 0-3.132.615 7.653 7.653 0 0 0-2.467 1.72 7.762 7.762 0 0 0-1.619 2.569 8.957 8.957 0 0 0-.568 3.227 9.415 9.415 0 0 0 .559 3.316c.35.961.894 1.842 1.597 2.586a7.226 7.226 0 0 0 2.494 1.693c1.029.415 2.13.62 3.239.606a9.369 9.369 0 0 0 3.833-.774 6.843 6.843 0 0 0 2.888-2.502l-1.398-1.172a5.52 5.52 0 0 1-2.218 1.994 6.674 6.674 0 0 1-3.053.752 5.782 5.782 0 0 1-2.973-.685A6.027 6.027 0 0 1 5.855 12.3a5.859 5.859 0 0 1-.945-1.959 6.894 6.894 0 0 1-.257-1.658v-.062h13.169V7.246a7.783 7.783 0 0 0-.488-2.653 7.057 7.057 0 0 0-1.398-2.334A6.962 6.962 0 0 0 13.664.614a7.598 7.598 0 0 0-3.155-.619v.004zm22.797 6.906h-11.27v-.062c.04-.395.132-.783.275-1.154a6.26 6.26 0 0 1 .927-1.729 6.134 6.134 0 0 1 1.775-1.574 5.307 5.307 0 0 1 2.804-.685 5.658 5.658 0 0 1 2.147.411 5.479 5.479 0 0 1 1.775 1.114 5.266 5.266 0 0 1 1.123 1.627c.292.623.443 1.302.444 1.989v.062zM27.911 0a7.785 7.785 0 0 0-3.137.615 7.632 7.632 0 0 0-2.458 1.715 7.694 7.694 0 0 0-1.619 2.569 8.873 8.873 0 0 0-.572 3.232 9.534 9.534 0 0 0 .555 3.316 7.562 7.562 0 0 0 1.602 2.586 7.226 7.226 0 0 0 2.494 1.693 8.354 8.354 0 0 0 3.239.606 9.369 9.369 0 0 0 3.833-.774 6.841 6.841 0 0 0 2.88-2.502l-1.398-1.172a5.48 5.48 0 0 1-2.241 1.994 6.674 6.674 0 0 1-3.053.752 5.785 5.785 0 0 1-2.973-.685 6.027 6.027 0 0 1-1.837-1.645 5.772 5.772 0 0 1-.932-1.959 6.845 6.845 0 0 1-.257-1.658v-.062h13.186V7.246a7.87 7.87 0 0 0-.47-2.653 7.057 7.057 0 0 0-1.398-2.334A7.018 7.018 0 0 0 31.088.614a7.63 7.63 0 0 0-3.155-.619l-.022.004zM52.58 14.629a6.454 6.454 0 0 1-2.609-.513 6.104 6.104 0 0 1-1.992-1.388 5.895 5.895 0 0 1-1.251-2.051 7.538 7.538 0 0 1 0-5.022 5.98 5.98 0 0 1 1.251-2.056 6.103 6.103 0 0 1 1.992-1.384 6.89 6.89 0 0 1 5.218 0 5.85 5.85 0 0 1 3.247 3.44 7.538 7.538 0 0 1 0 5.022 5.923 5.923 0 0 1-1.256 2.051 6.063 6.063 0 0 1-1.992 1.388 6.454 6.454 0 0 1-2.609.513zM52.58 0a8.874 8.874 0 0 0-3.301.615 7.472 7.472 0 0 0-2.596 1.693 7.862 7.862 0 0 0-1.686 2.586 8.678 8.678 0 0 0-.599 3.272 8.666 8.666 0 0 0 .608 3.28 7.841 7.841 0 0 0 1.686 2.586 7.574 7.574 0 0 0 2.587 1.693 8.894 8.894 0 0 0 3.305.606 8.744 8.744 0 0 0 3.292-.606 7.613 7.613 0 0 0 4.299-4.28 9.161 9.161 0 0 0 0-6.561 7.747 7.747 0 0 0-1.704-2.586 7.71 7.71 0 0 0-2.6-1.684 8.764 8.764 0 0 0-3.292-.606v-.009zM37.508 15.925h1.912V7.454a7.49 7.49 0 0 1 .306-2.171 5.004 5.004 0 0 1 .95-1.768 4.332 4.332 0 0 1 1.619-1.185 5.7 5.7 0 0 1 2.258-.442V.12c-2.218.044-3.971.725-5.182 2.016-1.992 2.118-1.864 5.195-1.864 5.226v8.564z" />
        </symbol>
        <symbol id="icon-pinterest" viewBox="0 0 32 32">
            <path
                d="M16.001 0C7.165 0 0 7.163 0 16.001c0 6.55 3.94 12.179 9.579 14.654-.045-1.116-.008-2.459.277-3.675.309-1.298 2.058-8.717 2.058-8.717s-.51-1.022-.51-2.533c0-2.371 1.375-4.141 3.086-4.141 1.454 0 2.158 1.093 2.158 2.403 0 1.462-.933 3.65-1.413 5.677-.401 1.699.85 3.082 2.525 3.082 3.031 0 5.073-3.893 5.073-8.507 0-3.505-2.361-6.13-6.657-6.13-4.852 0-7.876 3.618-7.876 7.66 0 1.396.41 2.378 1.054 3.138.297.352.337.491.229.894-.075.292-.252 1.003-.325 1.283-.107.404-.435.551-.8.401-2.237-.913-3.278-3.361-3.278-6.113 0-4.544 3.833-9.997 11.434-9.997 6.11 0 10.13 4.424 10.13 9.167 0 6.277-3.489 10.966-8.635 10.966-1.725 0-3.351-.933-3.908-1.993 0 0-.93 3.686-1.125 4.397-.339 1.232-1.003 2.467-1.611 3.426 1.439.425 2.96.657 4.535.657 8.836 0 15.999-7.163 15.999-15.999C31.999 7.163 24.836 0 16 0z" />
        </symbol>
        <symbol id="icon-twitter" viewBox="0 0 32 32">
            <path
                d="M32 5.824a12.816 12.816 0 0 1-3.77 1.059 6.715 6.715 0 0 0 2.887-3.723 12.932 12.932 0 0 1-4.172 1.631 6.474 6.474 0 0 0-4.791-2.124c-3.623 0-6.563 3.014-6.563 6.732 0 .528.056 1.04.169 1.533-5.456-.281-10.293-2.958-13.533-7.036a6.858 6.858 0 0 0-.888 3.388 6.777 6.777 0 0 0 2.921 5.603 6.445 6.445 0 0 1-2.975-.84v.083c0 3.263 2.263 5.984 5.269 6.601a6.451 6.451 0 0 1-2.966.118c.836 2.674 3.259 4.621 6.133 4.673a12.96 12.96 0 0 1-8.154 2.883c-.53 0-1.054-.031-1.566-.092a18.279 18.279 0 0 0 10.064 3.022c12.077 0 18.679-10.256 18.679-19.153 0-.293-.006-.586-.017-.873a13.479 13.479 0 0 0 3.274-3.484z" />
        </symbol>
        <symbol id="icon-yearwarranty" viewBox="0 0 32 32">
            <path
                d="M2.256 3.125C.957 3.125-.029 4.304-.029 5.66v.004c0 4.107 1.749 7.892 4.492 10.379a.552.552 0 0 0 .785-.036.554.554 0 0 0-.039-.785c-2.501-2.267-4.127-5.766-4.127-9.557v-.004c0-.832.563-1.424 1.174-1.424h1.779a.556.556 0 0 0 .555-.556V3.68a.556.556 0 0 0-.555-.555zM27.895 3.125a.557.557 0 0 0-.555.555v.001c0 .307.248.555.555.556h1.781c.61 0 1.172.592 1.172 1.424v.004c0 3.791-1.626 7.29-4.127 9.557a.553.553 0 0 0-.039.786.554.554 0 0 0 .785.037c2.743-2.487 4.492-6.272 4.492-10.379v-.004c0-1.356-.985-2.535-2.283-2.535zM8.26 29.629a.556.556 0 0 0-.555.556v.001c0 .306.249.554.555.555h15.412a.556.556 0 0 0 .555-.555v-.001a.556.556 0 0 0-.555-.556z" />
            <path
                d="M15.965 20.742a.556.556 0 0 0-.555.555V30.187c0 .307.248.555.555.556h.001a.556.556 0 0 0 .556-.556V21.297a.556.556 0 0 0-.556-.555h-.001z" />
        </symbol>
    </defs>
</svg>