<!-- Generated by IcoMoon.io -->
<svg version="1.1" xmlns="http://www.w3.org/2000/svg" width="32" height="32" viewBox="0 0 32 32">
<title>advancednetworkprotection</title>
<path fill="none" stroke-linejoin="round" stroke-linecap="round" stroke-miterlimit="4" stroke-width="0.81" stroke="#000" d="M12.479 15.473l2.328 2.322 4.815-4.803"></path>
<path fill="none" stroke-linejoin="round" stroke-linecap="round" stroke-miterlimit="4" stroke-width="0.81" stroke="#000" d="M16.541 26.712c1.902-1.050 8.687-5.634 8.953-17.719 0-0.007 0-0.014 0-0.022 0-0.442-0.28-0.819-0.672-0.963l-0.007-0.002c-2.573-0.887-5.566-1.4-8.767-1.4h0.003c-3.2 0-6.193 0.513-8.767 1.4-0.415 0.143-0.689 0.55-0.679 0.987 0.267 12.086 7.052 16.67 8.953 17.719 0.141 0.081 0.311 0.128 0.491 0.128s0.35-0.047 0.496-0.131l-0.005 0.003z"></path>
<path fill="none" stroke-linejoin="miter" stroke-linecap="butt" stroke-miterlimit="4" stroke-width="0.81" stroke="#000" d="M21.463 0.39h-10.927c-5.604 0-10.146 4.543-10.146 10.146v10.927c0 5.604 4.543 10.146 10.146 10.146h10.927c5.604 0 10.146-4.543 10.146-10.146v-10.927c0-5.604-4.543-10.146-10.146-10.146z"></path>
</svg>
