<!-- Generated by IcoMoon.io -->
<svg version="1.1" xmlns="http://www.w3.org/2000/svg" width="32" height="32" viewBox="0 0 32 32">
<title>alwaysgettingbetter</title>
<path fill="none" stroke-linejoin="miter" stroke-linecap="butt" stroke-miterlimit="4" stroke-width="0.81" stroke="#000" d="M21.463 0.39h-10.927c-5.604 0-10.146 4.543-10.146 10.146v10.927c0 5.604 4.543 10.146 10.146 10.146h10.927c5.604 0 10.146-4.543 10.146-10.146v-10.927c0-5.604-4.543-10.146-10.146-10.146z"></path>
<path fill="none" stroke-linejoin="round" stroke-linecap="round" stroke-miterlimit="4" stroke-width="0.81" stroke="#000" d="M8.973 14.46v-1.932c0-2.178 1.631-3.943 3.643-3.943h6.671c2.012 0 3.643 1.765 3.643 3.943v1.932M8.973 16.138v3.611c0 2.177 1.631 3.943 3.643 3.943h6.671c2.012 0 3.643-1.765 3.643-3.943v-3.611"></path>
<path fill="none" stroke-linejoin="round" stroke-linecap="round" stroke-miterlimit="4" stroke-width="0.81" stroke="#000" d="M10.738 12.55l-1.765 1.91-1.765-1.91M21.165 18.048l1.765-1.91 1.765 1.91"></path>
</svg>
