<!-- Generated by IcoMoon.io -->
<svg version="1.1" xmlns="http://www.w3.org/2000/svg" width="105" height="32" viewBox="0 0 105 32">
<title>amazon</title>
<path fill="#f90" d="M64.653 24.561c-6.055 4.469-14.832 6.845-22.392 6.845-10.595 0-20.135-3.917-27.353-10.434-0.567-0.513-0.061-1.212 0.62-0.816 7.789 4.533 17.422 7.262 27.37 7.262 6.71 0 14.087-1.393 20.876-4.271 1.024-0.435 1.883 0.674 0.88 1.414z"></path>
<path fill="#f90" d="M67.171 21.684c-0.774-0.991-5.118-0.469-7.070-0.237-0.591 0.071-0.684-0.446-0.15-0.819 3.467-2.434 9.145-1.731 9.806-0.917 0.664 0.823-0.175 6.516-3.423 9.233-0.499 0.417-0.975 0.194-0.752-0.356 0.73-1.827 2.366-5.912 1.59-6.904z"></path>
<path fill="#221f1f" d="M60.239 3.432c0.001 0.353 0.273 0.594 0.612 0.594l5.54 0.002-6.361 9.128c-0.389 0.584-0.395 1.24-0.395 1.625v2.399c0 0.347 0.386 0.746 0.754 0.548 3.608-1.916 7.938-1.729 11.201-0.019 0.4 0.209 0.782-0.195 0.782-0.541v-2.525c-0.034-0.34-0.145-0.689-0.562-0.922-1.852-1.040-4.010-1.347-6.047-1.299l5.49-7.841c0.509-0.704 0.795-1.148 0.8-1.489v-2.029c0-0.35-0.273-0.596-0.611-0.596l-10.602 0.001c-0.007-0-0.013-0-0.020-0-0.322 0-0.583 0.261-0.583 0.583 0 0.006 0 0.012 0 0.017v2.366zM81.179 0.161c4.786 0 7.375 4.11 7.375 9.336 0 5.049-2.858 9.057-7.375 9.057-4.696 0-7.257-4.111-7.257-9.232 0-5.156 2.589-9.161 7.257-9.161zM81.208 3.54c-2.379 0-2.529 3.239-2.529 5.26s-0.029 6.339 2.5 6.339c2.499 0 2.618-3.483 2.618-5.608 0-1.393-0.059-3.065-0.482-4.39-0.361-1.148-1.083-1.601-2.107-1.601zM51.788 10.299v-0.698c-2.332 0-4.797 0.5-4.797 3.248 0 1.396 0.723 2.339 1.962 2.339 0.904 0 1.719-0.559 2.232-1.466 0.633-1.117 0.603-2.165 0.603-3.422zM55.040 18.163c-0.213 0.192-0.603 0.198-0.762 0.075-1.102-0.852-1.849-2.149-1.849-2.149-1.771 1.804-3.025 2.347-5.317 2.347-2.716 0-4.829-1.679-4.829-5.029 0-2.618 1.419-4.399 3.441-5.271 1.749-0.77 4.194-0.909 6.065-1.118 0 0 0.155-2.021-0.392-2.758-0.426-0.571-1.146-0.838-1.81-0.838-1.196-0.006-2.352 0.646-2.582 1.898-0.065 0.357-0.33 0.659-0.608 0.628l-3.089-0.337c-0.28-0.039-0.493-0.276-0.493-0.563 0-0.039 0.004-0.077 0.012-0.114l-0.001 0.004c0.719-3.792 4.143-4.938 7.214-4.938 1.568 0 3.62 0.419 4.858 1.607 1.568 1.466 1.418 3.42 1.418 5.551v5.025c0 1.513 0.627 2.175 1.217 2.989 0.206 0.296 0.252 0.643-0.010 0.857-0.659 0.553-2.482 2.136-2.482 2.136zM9.504 10.299v-0.698c-2.331 0-4.796 0.5-4.796 3.248 0 1.396 0.723 2.339 1.962 2.339 0.904 0 1.719-0.559 2.232-1.466 0.633-1.117 0.602-2.165 0.602-3.422zM12.756 18.163c-0.213 0.192-0.602 0.198-0.761 0.075-1.103-0.852-1.849-2.149-1.849-2.149-1.771 1.804-3.025 2.347-5.318 2.347-2.714-0.001-4.828-1.68-4.828-5.030 0-2.618 1.419-4.399 3.439-5.271 1.75-0.77 4.195-0.909 6.065-1.118 0 0 0.157-2.021-0.392-2.758-0.425-0.571-1.146-0.838-1.809-0.838-1.198-0.006-2.353 0.646-2.582 1.898-0.066 0.357-0.33 0.659-0.608 0.628l-3.088-0.337c-0.28-0.037-0.493-0.275-0.493-0.562 0-0.040 0.004-0.079 0.012-0.116l-0.001 0.004c0.718-3.791 4.142-4.937 7.214-4.937 1.568 0 3.62 0.419 4.858 1.607 1.568 1.466 1.418 3.42 1.418 5.551v5.025c0 1.513 0.627 2.175 1.216 2.989 0.207 0.296 0.253 0.643-0.010 0.857-0.659 0.553-2.481 2.136-2.481 2.136zM22.189 8.835c0-1.917-0.090-4.564 2.227-4.564 2.288 0 1.988 2.717 1.988 4.564l0.003 8.776c0 0.316 0.256 0.575 0.579 0.593h3.222c0.004 0 0.009 0 0.014 0 0.331 0 0.6-0.265 0.608-0.594v-8.776c0-0.941-0.029-2.334 0.302-3.17s1.144-1.359 1.927-1.359c0.933 0 1.656 0.314 1.897 1.428 0.15 0.662 0.090 2.405 0.090 3.101l0.002 8.776c0 0.316 0.254 0.575 0.578 0.593h3.221c0.004 0 0.010 0 0.015 0 0.331 0 0.6-0.265 0.607-0.594v-0.001l0.004-10.447c0-1.777 0.21-3.797-0.815-5.191-0.902-1.254-2.377-1.811-3.733-1.811-1.896 0-3.671 0.976-4.455 3.066-0.904-2.091-2.168-3.066-4.185-3.066-1.987 0-3.462 0.976-4.244 3.066h-0.061v-2.114c0-0 0-0.001 0-0.001 0-0.333-0.27-0.602-0.602-0.602-0 0-0.001 0-0.001 0h-3.010c0 0 0 0 0 0-0.332 0-0.601 0.269-0.601 0.601 0 0 0 0.001 0 0.001v-0 16.491c0 0.332 0.269 0.601 0.601 0.601h3.221c0 0 0 0 0 0 0.332 0 0.602-0.269 0.602-0.601v-8.768zM95.392 17.602c0 0 0 0.001 0 0.001 0 0.333-0.27 0.602-0.602 0.602h-3.221c-0.332-0.001-0.601-0.27-0.601-0.602 0-0 0-0.001 0-0.001v0-16.49c0-0.333 0.27-0.603 0.601-0.603h2.978c0.349 0 0.603 0.281 0.603 0.472v2.523h0.062c0.903-2.264 2.167-3.344 4.395-3.344 1.447 0 2.861 0.523 3.764 1.951 0.845 1.323 0.845 3.552 0.845 5.155v10.417c-0.046 0.297-0.3 0.522-0.607 0.522-0.004 0-0.009-0-0.013-0h-3.233c-0.294-0.014-0.532-0.234-0.573-0.518l-0-0.003 0.005-10.002c0-3.347-1.282-3.445-2.021-3.445-0.861 0-1.554 0.673-1.858 1.3-0.45 1.011-0.523 2.044-0.523 3.159v8.907z"></path>
</svg>
