<!-- Generated by IcoMoon.io -->
<svg version="1.1" xmlns="http://www.w3.org/2000/svg" width="32" height="32" viewBox="0 0 32 32">
<title>appliances</title>
<path fill="none" stroke-linejoin="miter" stroke-linecap="butt" stroke-miterlimit="4" stroke-width="0.4051" stroke="#000" d="M21.463 0.643h-10.927c-5.604 0-10.146 4.488-10.146 10.024v10.795c0 5.536 4.543 10.024 10.146 10.024h10.927c5.604 0 10.146-4.488 10.146-10.024v-10.795c0-5.536-4.543-10.024-10.146-10.024z"></path>
<path fill="none" stroke-linejoin="round" stroke-linecap="round" stroke-miterlimit="4" stroke-width="0.638" stroke="#000" d="M22.104 22.095c-3.36 3.32-8.809 3.32-12.169 0s-3.361-8.702 0-12.022c3.36-3.32 8.809-3.32 12.169 0s3.36 8.703 0 12.022z"></path>
<path fill="none" stroke-linejoin="round" stroke-linecap="round" stroke-miterlimit="4" stroke-width="0.638" stroke="#000" d="M18.627 20.205c-0.342 0.342-0.748 0.614-1.197 0.8s-0.93 0.283-1.416 0.285-0.968-0.092-1.418-0.275c-0.45-0.183-0.858-0.452-1.202-0.792s-0.616-0.744-0.802-1.188c-0.185-0.444-0.28-0.92-0.278-1.401s0.1-0.956 0.288-1.399c0.188-0.443 0.464-0.845 0.81-1.182 0.693-0.675 1.629-1.053 2.602-1.049s1.906 0.387 2.595 1.067c0.689 0.68 1.077 1.602 1.080 2.564s-0.378 1.886-1.062 2.571z"></path>
<path fill="none" stroke-linejoin="round" stroke-linecap="round" stroke-miterlimit="4" stroke-width="0.638" stroke="#000" d="M16.020 16.415v2.429"></path>
<path fill="none" stroke-linejoin="round" stroke-linecap="round" stroke-miterlimit="4" stroke-width="0.638" stroke="#000" d="M16.889 11.621c-0.231 0.224-0.543 0.349-0.867 0.348s-0.635-0.129-0.864-0.356c-0.229-0.226-0.359-0.533-0.36-0.853s0.125-0.628 0.352-0.857c0.231-0.224 0.543-0.349 0.867-0.348s0.635 0.129 0.864 0.356c0.229 0.226 0.359 0.533 0.36 0.853s-0.125 0.628-0.352 0.857v0z"></path>
</svg>
