<!-- Generated by IcoMoon.io -->
<svg version="1.1" xmlns="http://www.w3.org/2000/svg" width="32" height="32" viewBox="0 0 32 32">
<title>appliances</title>
<path fill="none" stroke-linejoin="miter" stroke-linecap="butt" stroke-miterlimit="4" stroke-width="0.4051" stroke="#000" d="M21.463 0.642h-10.927c-5.604 0-10.146 4.488-10.146 10.024v10.795c0 5.536 4.543 10.024 10.147 10.024h10.927c5.604 0 10.146-4.488 10.146-10.024v-10.795c0-5.536-4.543-10.024-10.147-10.024z"></path>
<path fill="none" stroke-linejoin="round" stroke-linecap="round" stroke-miterlimit="4" stroke-width="0.638" stroke="#000" d="M22.104 22.095c-3.36 3.32-8.809 3.32-12.169 0-1.556-1.53-2.521-3.658-2.521-6.011s0.964-4.481 2.519-6.010l0.001-0.001c3.36-3.321 8.809-3.321 12.169 0 1.556 1.53 2.52 3.658 2.52 6.011s-0.964 4.481-2.519 6.010l-0.001 0.001z"></path>
<path fill="none" stroke-linejoin="round" stroke-linecap="round" stroke-miterlimit="4" stroke-width="0.638" stroke="#000" d="M18.627 20.205c-0.334 0.334-0.731 0.604-1.173 0.791l-0.024 0.009c-0.422 0.18-0.913 0.285-1.429 0.285-0.507 0-0.99-0.101-1.43-0.284l0.025 0.009c-0.467-0.193-0.867-0.461-1.203-0.793l0 0c-0.335-0.331-0.606-0.725-0.793-1.164l-0.009-0.024c-0.176-0.41-0.278-0.887-0.278-1.388 0-0.51 0.106-0.996 0.297-1.435l-0.009 0.023c0.199-0.461 0.473-0.854 0.809-1.182l0.001-0.001c0.668-0.649 1.58-1.049 2.586-1.049 0.006 0 0.011 0 0.017 0h-0.001c1.012 0.002 1.928 0.409 2.596 1.067l-0-0c0.663 0.653 1.075 1.56 1.080 2.563v0.001c0 0.003 0 0.006 0 0.009 0 1.001-0.406 1.907-1.062 2.562l-0 0z"></path>
<path fill="none" stroke-linejoin="round" stroke-linecap="round" stroke-miterlimit="4" stroke-width="0.638" stroke="#000" d="M16.019 16.415v2.429"></path>
<path fill="none" stroke-linejoin="round" stroke-linecap="round" stroke-miterlimit="4" stroke-width="0.638" stroke="#000" d="M16.889 11.621c-0.222 0.216-0.526 0.348-0.861 0.348-0.002 0-0.005 0-0.007-0h0c-0.337-0.001-0.642-0.137-0.864-0.357l0 0c-0.221-0.217-0.358-0.519-0.36-0.853v-0c0-0.001 0-0.003 0-0.004 0-0.333 0.135-0.634 0.352-0.852l-0 0c0.222-0.216 0.526-0.348 0.861-0.348 0.002 0 0.004 0 0.006 0h-0c0.324 0.002 0.635 0.13 0.864 0.356 0.221 0.217 0.358 0.519 0.36 0.853v0c0 0.001 0 0.003 0 0.004 0 0.333-0.135 0.634-0.352 0.852l0-0z"></path>
</svg>
