<!-- Generated by IcoMoon.io -->
<svg version="1.1" xmlns="http://www.w3.org/2000/svg" width="32" height="32" viewBox="0 0 32 32">
<title>facebook</title>
<path d="M17.092 32h-15.326c-0.976 0-1.766-0.791-1.766-1.766v0-28.467c0-0.977 0.79-1.766 1.766-1.766h28.467c0.977 0 1.766 0.79 1.766 1.766v28.467c0 0.977-0.79 1.766-1.766 1.766h-8.154v-12.393h4.16l0.622-4.829h-4.782v-3.083c0-1.399 0.388-2.352 2.393-2.352l2.558-0.001v-4.32c-0.443-0.059-1.961-0.19-3.727-0.19-3.687 0-6.211 2.251-6.211 6.384v3.562h-4.171v4.829h4.171v12.393z"></path>
</svg>
