<!-- Generated by IcoMoon.io -->
<svg version="1.1" xmlns="http://www.w3.org/2000/svg" width="32" height="32" viewBox="0 0 32 32">
<title>fastandeasysetup</title>
<path fill="none" stroke-linejoin="round" stroke-linecap="round" stroke-miterlimit="4" stroke-width="0.8101" stroke="#000" d="M23.668 19.064c0-1.86-1.506-3.369-3.363-3.369h-3.671l-0.509-6.595c-0.051-0.594-0.546-1.057-1.15-1.057-0.635 0-1.149 0.512-1.154 1.146v0l0.010 13.244-2.341-2.050c-0.435-0.383-1.009-0.616-1.637-0.616-0.594 0-1.14 0.209-1.567 0.557l0.005-0.004s4.103 5.015 7.038 6.406"></path>
<path fill="none" stroke-linejoin="round" stroke-linecap="round" stroke-miterlimit="4" stroke-width="0.8101" stroke="#000" d="M11.106 11.369v-3.597c0-0 0-0.001 0-0.001 0-1.221 0.989-2.21 2.209-2.211h3.314c1.22 0.001 2.209 0.99 2.209 2.21 0 0.001 0 0.002 0 0.003v-0 3.597"></path>
<path fill="none" stroke-linejoin="miter" stroke-linecap="butt" stroke-miterlimit="4" stroke-width="0.8101" stroke="#000" d="M21.463 0.39h-10.927c-5.604 0-10.146 4.543-10.146 10.147v10.927c0 5.604 4.543 10.146 10.147 10.146h10.927c5.604 0 10.146-4.543 10.146-10.147v-10.926c0-5.604-4.543-10.146-10.147-10.146z"></path>
</svg>
