<!-- Generated by IcoMoon.io -->
<svg version="1.1" xmlns="http://www.w3.org/2000/svg" width="32" height="32" viewBox="0 0 32 32">
<title>freesupport</title>
<path fill="none" stroke-linejoin="round" stroke-linecap="round" stroke-miterlimit="4" stroke-width="1.1111" stroke="#000" d="M20.6 5.162c-0 2.56-2.076 4.635-4.636 4.635s-4.636-2.075-4.636-4.636c0-0 0-0 0-0v0c0-2.56 2.075-4.636 4.636-4.636s4.636 2.075 4.636 4.636v0z"></path>
<path fill="none" stroke-linejoin="round" stroke-linecap="round" stroke-miterlimit="4" stroke-width="1.1111" stroke="#000" d="M0.526 31.177h30.878M23.436 28.371v-5.837c0-0.852-0.692-1.544-1.544-1.544h-11.854c-0.852 0-1.543 0.692-1.543 1.544v5.836"></path>
<path fill="none" stroke-linejoin="round" stroke-linecap="round" stroke-miterlimit="4" stroke-width="1.1111" stroke="#000" d="M27.664 28.338c0.529-0.608 0.852-1.408 0.852-2.284 0-0.462-0.090-0.903-0.253-1.306l0.008 0.023-2.708-6.849c-0.93-2.306-3.149-3.904-5.742-3.905h-7.712c-2.593 0-4.813 1.598-5.728 3.863l-0.015 0.041-2.708 6.849c-0.155 0.38-0.244 0.821-0.244 1.282 0 0.876 0.323 1.676 0.856 2.289l-0.004-0.004"></path>
</svg>
