<!-- Generated by IcoMoon.io -->
<svg version="1.1" xmlns="http://www.w3.org/2000/svg" width="32" height="32" viewBox="0 0 32 32">
<title>freeshipping</title>
<path fill="none" stroke-linejoin="round" stroke-linecap="round" stroke-miterlimit="4" stroke-width="1.1111" stroke="#000" d="M1.228 22.308v-21.538h22.274c0.625 0 1.175 0.588 1.351 1.445l1.796 10.794 3.327 1.733c0.447 0.355 0.725 1.028 0.725 1.76v5.805M15.964 22.308v-17.436M27.595 26.409h3.809M11.352 26.409h9.227M0.526 26.409h3.808"></path>
<path fill="none" stroke-linejoin="round" stroke-linecap="round" stroke-miterlimit="4" stroke-width="1.1111" stroke="#000" d="M11.353 26.41c0 2.832-1.571 5.128-3.508 5.128s-3.509-2.296-3.509-5.128 1.572-5.128 3.509-5.128c1.938 0 3.508 2.296 3.508 5.128z"></path>
<path d="M9.16 26.41c0 1.062-0.589 1.924-1.316 1.924s-1.316-0.862-1.316-1.924c0-1.061 0.589-1.923 1.316-1.923s1.316 0.862 1.316 1.923z"></path>
<path fill="none" stroke-linejoin="round" stroke-linecap="round" stroke-miterlimit="4" stroke-width="1.1111" stroke="#000" d="M27.595 26.41c0 2.832-1.572 5.128-3.508 5.128s-3.509-2.296-3.509-5.128 1.572-5.128 3.509-5.128c1.938 0 3.508 2.296 3.508 5.128z"></path>
<path d="M25.402 26.41c0 1.062-0.589 1.924-1.316 1.924s-1.316-0.862-1.316-1.924c0-1.061 0.589-1.923 1.316-1.923s1.316 0.862 1.316 1.923z"></path>
<path fill="none" stroke-linejoin="round" stroke-linecap="round" stroke-miterlimit="4" stroke-width="1.1111" stroke="#000" d="M26.651 13.008h-6.812v-8.137h5.457"></path>
</svg>
