<!-- Generated by IcoMoon.io -->
<svg version="1.1" xmlns="http://www.w3.org/2000/svg" width="32" height="32" viewBox="0 0 32 32">
<title>instagram</title>
<path d="M16 0c-4.346 0-4.891 0.018-6.596 0.096-1.703 0.078-2.866 0.349-3.885 0.745-1.109 0.424-2.054 1.052-2.832 1.844l-0.001 0.001c-0.793 0.779-1.421 1.724-1.827 2.779l-0.018 0.054c-0.396 1.020-0.667 2.182-0.745 3.884-0.078 1.707-0.096 2.253-0.096 6.597s0.018 4.891 0.096 6.596c0.078 1.703 0.349 2.867 0.745 3.885 0.424 1.109 1.052 2.054 1.844 2.832l0.001 0.001c0.779 0.793 1.724 1.421 2.779 1.827l0.054 0.018c1.019 0.396 2.181 0.667 3.884 0.745 1.707 0.078 2.252 0.096 6.597 0.096s4.891-0.018 6.596-0.096c1.703-0.078 2.867-0.349 3.885-0.743 1.109-0.424 2.054-1.052 2.832-1.844l0.001-0.001c0.793-0.78 1.421-1.725 1.827-2.78l0.018-0.054c0.396-1.018 0.667-2.181 0.745-3.885 0.078-1.707 0.096-2.251 0.096-6.596s-0.018-4.891-0.096-6.596c-0.078-1.703-0.349-2.866-0.743-3.885-0.424-1.109-1.052-2.054-1.844-2.832l-0.001-0.001c-0.78-0.793-1.725-1.421-2.78-1.827l-0.054-0.018c-1.018-0.396-2.182-0.667-3.885-0.745-1.707-0.078-2.25-0.096-6.596-0.096zM16 2.883c4.272 0 4.779 0.016 6.465 0.093 1.561 0.071 2.407 0.332 2.972 0.551 0.747 0.29 1.28 0.637 1.839 1.197 0.56 0.56 0.907 1.092 1.197 1.839 0.22 0.564 0.48 1.411 0.551 2.972 0.077 1.686 0.093 2.193 0.093 6.465s-0.016 4.779-0.093 6.465c-0.071 1.561-0.332 2.407-0.551 2.972-0.29 0.747-0.637 1.28-1.197 1.839-0.503 0.518-1.118 0.926-1.805 1.186l-0.034 0.011c-0.564 0.22-1.411 0.48-2.972 0.551-1.686 0.077-2.192 0.093-6.465 0.093-4.272 0-4.779-0.016-6.465-0.093-1.561-0.071-2.407-0.332-2.972-0.551-0.747-0.29-1.28-0.637-1.839-1.197-0.518-0.504-0.926-1.118-1.186-1.805l-0.011-0.034c-0.22-0.564-0.48-1.411-0.551-2.972-0.077-1.686-0.093-2.193-0.093-6.465s0.016-4.779 0.093-6.465c0.071-1.561 0.332-2.407 0.551-2.972 0.29-0.747 0.637-1.28 1.197-1.839 0.504-0.518 1.118-0.926 1.805-1.186l0.034-0.011c0.564-0.22 1.411-0.48 2.972-0.551 1.686-0.077 2.193-0.093 6.465-0.093zM7.783 16c0-4.538 3.679-8.217 8.217-8.217s8.217 3.679 8.217 8.217v0c0 4.538-3.679 8.217-8.217 8.217s-8.217-3.679-8.217-8.217v0zM16 21.333c-2.946 0-5.333-2.388-5.333-5.333s2.388-5.333 5.333-5.333v0c2.946 0 5.333 2.388 5.333 5.333s-2.388 5.333-5.333 5.333v0zM24.541 9.379c1.060 0 1.92-0.86 1.92-1.92s-0.86-1.92-1.92-1.92v0c-1.060 0-1.92 0.86-1.92 1.92s0.86 1.92 1.92 1.92v0z"></path>
</svg>
