<!-- Generated by IcoMoon.io -->
<svg version="1.1" xmlns="http://www.w3.org/2000/svg" width="32" height="32" viewBox="0 0 32 32">
<title>lighting</title>
<path fill="none" stroke-linejoin="miter" stroke-linecap="butt" stroke-miterlimit="4" stroke-width="0.4103" stroke="#000" d="M21.739 0.241h-11.067c-5.676 0-10.276 4.545-10.276 10.153v10.934c0 5.607 4.601 10.153 10.276 10.153h11.067c5.676 0 10.276-4.545 10.276-10.153v-10.934c0-5.607-4.601-10.153-10.276-10.153z"></path>
<path fill="none" stroke-linejoin="round" stroke-linecap="round" stroke-miterlimit="4" stroke-width="0.6462" stroke="#000" d="M12.756 21.119h6.576"></path>
<path fill="none" stroke-linejoin="round" stroke-linecap="round" stroke-miterlimit="4" stroke-width="0.6462" stroke="#000" d="M13.695 22.759h4.697"></path>
<path fill="none" stroke-linejoin="round" stroke-linecap="round" stroke-miterlimit="4" stroke-width="0.6462" stroke="#000" d="M17.453 24.399h-2.818"></path>
<path fill="none" stroke-linejoin="round" stroke-linecap="round" stroke-miterlimit="4" stroke-width="0.6462" stroke="#000" d="M19.304 19.479c0-0.883 0.221-1.751 0.643-2.53l1.39-2.569c0.008-0.015 0.017-0.029 0.025-0.044l0.009-0.017h-0.003c0.291-0.611 0.442-1.278 0.443-1.954 0-2.813-2.582-5.095-5.767-5.095s-5.767 2.281-5.767 5.095c0 0.693 0.159 1.352 0.443 1.954h-0.002l0.009 0.017c0.007 0.015 0.017 0.030 0.025 0.045l1.39 2.568c0.422 0.778 0.643 1.648 0.643 2.531"></path>
</svg>
