<!-- Generated by IcoMoon.io -->
<svg version="1.1" xmlns="http://www.w3.org/2000/svg" width="32" height="32" viewBox="0 0 32 32">
<title>linkedin</title>
<path d="M3.766 8.311h-0.044c-2.259 0-3.723-1.511-3.723-3.426 0-1.952 1.507-3.431 3.81-3.431 2.301 0 3.716 1.475 3.761 3.426 0 1.915-1.46 3.431-3.805 3.431zM32 30.545h-7.072v-10.226c0-2.677-1.107-4.505-3.539-4.505-1.861 0-2.896 1.233-3.377 2.421-0.16 0.375-0.157 0.881-0.154 1.403v10.907h-7.006s0.091-18.115 0-19.762h7.007v3.102c0.414-1.357 2.653-3.292 6.225-3.292 4.433 0 7.916 2.843 7.916 8.963v10.989zM7.044 10.783h-6.237v19.762h6.237v-19.762z"></path>
</svg>
