<!-- Generated by IcoMoon.io -->
<svg version="1.1" xmlns="http://www.w3.org/2000/svg" width="32" height="32" viewBox="0 0 32 32">
<title>pinterest</title>
<path d="M16 0c-8.834 0-16 7.163-16 16 0 6.55 3.94 12.181 9.579 14.655-0.045-1.116-0.007-2.46 0.277-3.675 0.308-1.298 2.059-8.718 2.059-8.718s-0.511-1.022-0.511-2.532c0-2.371 1.376-4.142 3.086-4.142 1.455 0 2.159 1.093 2.159 2.403 0 1.461-0.933 3.65-1.413 5.677-0.401 1.699 0.85 3.083 2.525 3.083 3.031 0 5.073-3.893 5.073-8.508 0-3.505-2.362-6.13-6.657-6.13-4.853 0-7.876 3.618-7.876 7.66 0 1.397 0.41 2.379 1.054 3.139 0.297 0.352 0.337 0.491 0.229 0.894-0.075 0.291-0.252 1.003-0.325 1.283-0.107 0.404-0.435 0.551-0.8 0.4-2.237-0.912-3.278-3.36-3.278-6.112 0-4.544 3.834-9.998 11.435-9.998 6.11 0 10.13 4.423 10.13 9.167 0 6.277-3.488 10.965-8.635 10.965-1.725 0-3.35-0.932-3.908-1.991 0 0-0.928 3.685-1.124 4.397-0.339 1.233-1.003 2.467-1.611 3.426 1.44 0.426 2.959 0.657 4.533 0.657 8.837 0 16-7.163 16-16s-7.163-16-16-16z"></path>
</svg>
