<!-- Generated by IcoMoon.io -->
<svg version="1.1" xmlns="http://www.w3.org/2000/svg" width="32" height="32" viewBox="0 0 32 32">
<title>security</title>
<path fill="none" stroke-linejoin="miter" stroke-linecap="butt" stroke-miterlimit="4" stroke-width="0.6076" stroke="#000" d="M10.537 0.39h10.927c5.604 0 10.146 4.543 10.146 10.147v10.927c0 5.603-4.543 10.146-10.147 10.146h-10.926c-5.604 0-10.147-4.544-10.147-10.147v-10.926c0-5.604 4.544-10.147 10.147-10.147z"></path>
<path fill="none" stroke-linejoin="miter" stroke-linecap="butt" stroke-miterlimit="4" stroke-width="0.6076" stroke="#000" d="M18.721 10.268c-0.782-0.47-1.725-0.749-2.734-0.749-0.003 0-0.005 0-0.008 0h0c-0.994 0-1.926 0.269-2.725 0.738M20.725 8.408c-1.311-0.97-2.959-1.553-4.744-1.553-0.004 0-0.009 0-0.013 0h0.001c-0.004 0-0.008 0-0.013 0-1.768 0-3.402 0.572-4.728 1.541l0.023-0.016"></path>
<path fill="none" stroke-linejoin="miter" stroke-linecap="butt" stroke-miterlimit="4" stroke-width="0.6076" stroke="#000" d="M18.035 24.755h-4.071c-2.115 0-3.829-1.715-3.829-3.829v-4.071c0-2.114 1.714-3.829 3.829-3.829h4.071c2.115 0 3.829 1.714 3.829 3.829v0 4.071c0 0 0 0 0 0 0 2.115-1.714 3.829-3.829 3.829-0 0-0 0-0 0h0z"></path>
<path fill="none" stroke-linejoin="miter" stroke-linecap="butt" stroke-miterlimit="4" stroke-width="0.6076" stroke="#000" d="M14.287 18.89c0-0 0-0 0-0 0-0.946 0.767-1.713 1.713-1.713s1.713 0.767 1.713 1.713v0c0 0 0 0 0 0 0 0.946-0.767 1.713-1.713 1.713s-1.713-0.767-1.713-1.713v0z"></path>
</svg>
