<!-- Generated by IcoMoon.io -->
<svg version="1.1" xmlns="http://www.w3.org/2000/svg" width="32" height="32" viewBox="0 0 32 32">
<title>twitter</title>
<path d="M32 5.824c-1.175 0.535-2.443 0.897-3.77 1.059 1.364-0.852 2.386-2.145 2.873-3.675l0.013-0.048c-1.199 0.742-2.596 1.308-4.087 1.616l-0.084 0.014c-1.188-1.306-2.894-2.123-4.791-2.125h-0c-3.623 0-6.563 3.014-6.563 6.731 0 0.529 0.057 1.041 0.169 1.534-5.456-0.281-10.293-2.958-13.533-7.036-0.559 0.971-0.889 2.134-0.889 3.375 0 0.004 0 0.009 0 0.013v-0.001c-0 0.009-0 0.019-0 0.030 0 2.301 1.147 4.334 2.9 5.559l0.022 0.015c-1.1-0.037-2.12-0.344-3.007-0.856l0.031 0.017v0.082c0 3.264 2.263 5.984 5.269 6.602-0.511 0.15-1.098 0.237-1.706 0.237-0.009 0-0.017-0-0.026-0h0.001c-0.422 0-0.836-0.041-1.236-0.119 0.836 2.673 3.259 4.621 6.133 4.672-2.207 1.796-5.052 2.883-8.151 2.883-0.001 0-0.002 0-0.003 0h0c-0.53 0-1.054-0.030-1.567-0.092 2.833 1.893 6.317 3.021 10.064 3.022h0c12.077 0 18.679-10.256 18.679-19.153 0-0.292-0.006-0.586-0.017-0.873 1.283-0.949 2.397-2.133 3.274-3.484z"></path>
</svg>
