<!-- Generated by IcoMoon.io -->
<svg version="1.1" xmlns="http://www.w3.org/2000/svg" width="123" height="32" viewBox="0 0 123 32">
<title>wifi6</title>
<path fill="#fff" d="M0 16c0-8.837 7.163-16 16-16h91.429c8.837 0 16 7.163 16 16s-7.163 16-16 16h-91.429c-8.837 0-16-7.163-16-16z"></path>
<path fill="#000" d="M36.381 17.858l2.333-12.334h3.56l-3.843 17.333h-3.596l-2.821-11.596-2.824 11.596h-3.596l-3.843-17.333h3.56l2.347 12.309 2.856-12.309h3.025l2.845 12.334zM48.012 22.857h-3.572v-17.333h3.572v17.333zM57.798 16.823h-6.705v-2.776h6.703v2.773zM71.214 15.774h-6.857v7.083h-3.57v-17.333h11.285v2.892h-7.715v4.477h6.857v2.88zM77.94 22.857h-3.57v-17.333h3.57v17.333zM96.297 5.346v2.834h-0.332c-1.556 0.023-2.81 0.427-3.764 1.213-0.943 0.786-1.51 1.877-1.701 3.275 0.92-0.937 2.083-1.405 3.488-1.405 1.509 0 2.706 0.539 3.596 1.618 0.887 1.079 1.332 2.499 1.332 4.262 0 1.128-0.245 2.147-0.738 3.060-0.479 0.903-1.186 1.629-2.047 2.117l-0.026 0.013c-0.888 0.509-1.897 0.762-3.023 0.762-1.826 0-3.302-0.634-4.428-1.905-1.12-1.269-1.679-2.964-1.679-5.083v-1.237c0-1.882 0.354-3.54 1.059-4.977 0.716-1.445 1.734-2.56 3.060-3.345 1.333-0.794 2.877-1.195 4.632-1.204h0.57zM92.94 14.024c-0.555 0-1.059 0.146-1.512 0.442-0.439 0.274-0.782 0.664-0.993 1.127l-0.007 0.016v1.047c0 1.15 0.226 2.051 0.678 2.702 0.453 0.643 1.088 0.965 1.905 0.965 0.738 0 1.333-0.29 1.786-0.869 0.46-0.588 0.69-1.346 0.69-2.275 0-0.945-0.23-1.707-0.69-2.286s-1.079-0.869-1.858-0.869z"></path>
</svg>
